<?xml version="1.0" encoding="UTF-8"?>
<svg version="1.1" xmlns="http://www.w3.org/2000/svg" width="8334" height="8334">
<path d="M0 0 C0.85433624 0.00060425 1.70867249 0.0012085 2.58889771 0.00183105 C80.93428024 0.15169567 156.42497642 27.94155081 214.015625 81.48828125 C216.72628029 83.99237591 219.4802361 86.43676845 222.25 88.875 C225.81697858 92.07904276 229.03210386 95.39236644 232.1171875 99.05859375 C234.19323771 101.48659238 236.376828 103.79525637 238.5625 106.125 C256.26143316 125.61521491 270.33492862 148.17015324 282.9375 171.1875 C283.39721191 172.01652832 283.85692383 172.84555664 284.33056641 173.69970703 C330.2737857 256.86687555 345.29596186 355.8916027 351.9375 471.1875 C351.97986786 472.24643463 352.02223572 473.30536926 352.06588745 474.39639282 C352.87938791 495.35041758 353.14109129 516.28167294 353.125 537.25 C353.12473312 538.03671585 353.12446625 538.8234317 353.12419128 539.63398743 C353.08459314 633.23868963 345.17951869 726.55225619 309.57830811 979.49298096 C309.0044303 982.80161966 308.43438007 986.11088044 307.86600304 989.42046642 C292.38005324 1079.57881754 274.77119409 1169.38309607 223.9375 1397.1875 C223.67516571 1398.29686165 223.67516571 1398.29686165 223.40753174 1399.42863464 C202.11075804 1489.47426056 179.62251909 1579.23638271 116.02864456 1812.00303841 C115.14439687 1815.10005765 114.26267969 1818.19779471 113.3811264 1821.29558182 C112.78283178 1823.39280936 112.18005455 1825.48871135 111.57696533 1827.58456421 C111.05015167 1829.43424301 111.05015167 1829.43424301 110.51269531 1831.32128906 C110.20632141 1832.38961975 109.89994751 1833.45795044 109.58428955 1834.55865479 C108.8180446 1837.22181362 108.8180446 1837.22181362 108.9375 1840.1875 C110.08025391 1838.84558594 110.08025391 1838.84558594 111.24609375 1837.4765625 C115.98014732 1831.92924058 120.7127379 1826.39129475 125.625 1821 C128.6166816 1817.70807795 131.46274423 1814.34158693 134.25 1810.875 C138.662887 1805.41878595 143.38221028 1800.30134549 148.1640625 1795.171875 C152.46855514 1790.55396239 156.58062405 1785.77988393 160.67578125 1780.9765625 C166.26068933 1774.43094569 171.90303961 1767.96710493 177.71484375 1761.62109375 C181.77576113 1757.17478175 185.71600872 1752.62903286 189.61328125 1748.0390625 C195.16100723 1741.51523736 200.80145668 1735.12224326 206.65161133 1728.86791992 C209.6758702 1725.61418335 212.53750498 1722.28509081 215.3125 1718.8125 C220.13998657 1712.79576035 225.42020464 1707.24219097 230.70703125 1701.6328125 C233.64782579 1698.50974078 236.50149177 1695.32477908 239.30078125 1692.07421875 C241.31623772 1689.75091213 243.37598462 1687.47001535 245.4375 1685.1875 C248.10798344 1682.22880249 250.76048058 1679.25823528 253.375 1676.25 C257.02687053 1672.05585635 260.78016184 1667.95655708 264.52734375 1663.84765625 C267.10988884 1660.99722966 269.64405103 1658.10924108 272.16796875 1655.20703125 C275.71328088 1651.16083617 279.33272905 1647.18066378 282.9375 1643.1875 C284.43778679 1641.52109149 285.93778872 1639.85442647 287.4375 1638.1875 C323.4375 1598.1875 323.4375 1598.1875 325.6953125 1595.6796875 C327.17042618 1594.04010121 328.64441652 1592.39950345 330.1171875 1590.7578125 C334.66291889 1585.69441775 339.24368636 1580.66461796 343.84667969 1575.65332031 C348.96634528 1570.07507026 354.02401254 1564.44187082 359.07421875 1558.80078125 C363.8356734 1553.49222948 368.65118307 1548.23750511 373.49536133 1543.00463867 C376.50116772 1539.7542014 379.48286554 1536.48470077 382.4375 1533.1875 C386.87366763 1528.23885091 391.38183834 1523.35915228 395.89453125 1518.48046875 C398.77144774 1515.36967146 401.63797268 1512.24949517 404.5 1509.125 C404.95044678 1508.63330322 405.40089355 1508.14160645 405.86499023 1507.63500977 C407.22267963 1506.15267684 408.58013507 1504.67013005 409.9375 1503.1875 C417.08383854 1495.38165797 424.24796189 1487.59267311 431.43017578 1479.81982422 C432.91160134 1478.21554639 434.39158992 1476.60995634 435.87109375 1475.00390625 C441.7986954 1468.57124019 447.75302793 1462.16441675 453.72607422 1455.77392578 C457.47750118 1451.75815384 461.21412887 1447.7292887 464.9375 1443.6875 C475.90155797 1431.78955455 486.98134184 1419.99901293 498.05078125 1408.19921875 C499.91987412 1406.20629364 501.78819748 1404.21265027 503.65625 1402.21875 C506.76434235 1398.90130216 509.87395441 1395.58528445 512.984375 1392.27001953 C514.3312149 1390.83395149 515.67753796 1389.39739861 517.0234375 1387.96044922 C519.13936731 1385.70161665 521.25703754 1383.44442661 523.375 1381.1875 C524.01300537 1380.5056665 524.65101074 1379.82383301 525.30834961 1379.12133789 C529.17352048 1375.0065739 533.11328072 1370.98356075 537.13598633 1367.02246094 C538.90389531 1365.2217286 540.55511429 1363.36114567 542.1875 1361.4375 C545.27311655 1357.84233209 548.56948285 1354.5141283 551.9375 1351.1875 C555.18048109 1347.98407952 558.36686232 1344.7964268 561.3125 1341.3125 C565.1736601 1336.76660215 569.44183275 1332.63064144 573.70068359 1328.46142578 C576.69901515 1325.50692702 579.56828742 1322.50565058 582.3125 1319.3125 C587.00107255 1313.88087243 592.15252119 1308.92575098 597.265625 1303.8984375 C600.71649213 1300.4827833 604.09737984 1297.06959602 607.25 1293.375 C612.63908127 1287.10429483 618.6599378 1281.41032191 624.54003906 1275.60546875 C626.11218215 1274.05164002 627.68113084 1272.49463323 629.25 1270.9375 C630.17425781 1270.02484375 631.09851562 1269.1121875 632.05078125 1268.171875 C634.21417197 1265.98491223 636.23906216 1263.70990298 638.24609375 1261.37890625 C642.18791247 1256.8317694 646.41103452 1252.60556345 650.6875 1248.375 C651.50444336 1247.56184326 652.32138672 1246.74868652 653.16308594 1245.91088867 C656.62445042 1242.4657266 660.09178591 1239.0265971 663.55859375 1235.58691406 C666.10365188 1233.06003492 668.64563131 1230.53008685 671.1875 1228 C671.96061523 1227.23518311 672.73373047 1226.47036621 673.53027344 1225.68237305 C674.63677246 1224.58082886 674.63677246 1224.58082886 675.765625 1223.45703125 C676.4040332 1222.82385986 677.04244141 1222.19068848 677.70019531 1221.53833008 C679.56914382 1219.57454732 681.33864495 1217.57514808 683.10572815 1215.52125549 C687.33407819 1210.66175863 691.85909742 1206.12577734 696.41772461 1201.57788086 C697.34223923 1200.65161392 698.26675385 1199.72534698 699.21928406 1198.77101135 C701.7335345 1196.2522388 704.25089348 1193.73659548 706.76899791 1191.22167659 C709.4172939 1188.57593138 712.06312756 1185.92772548 714.70936584 1183.27992249 C719.15169785 1178.83577668 723.59612142 1174.39373077 728.04174805 1169.95288086 C733.16448285 1164.83558715 738.28360553 1159.71470125 743.4008674 1154.5919351 C747.81283609 1150.17541276 752.22677011 1145.76086171 756.64232069 1141.34792048 C759.271516 1138.72027558 761.90005159 1136.09198029 764.52680779 1133.4618969 C767.45762778 1130.52762331 770.39255834 1127.59749406 773.32788086 1124.66772461 C774.18579224 1123.807789 775.04370361 1122.94785339 775.9276123 1122.06185913 C780.23757372 1117.76692706 784.62142554 1113.63470372 789.23391056 1109.6663599 C791.27819221 1107.89175031 793.20941739 1106.02945645 795.11523438 1104.10742188 C795.82957642 1103.38977661 796.54391846 1102.67213135 797.27990723 1101.93273926 C798.02285034 1101.1814978 798.76579346 1100.43025635 799.53125 1099.65625 C800.71769104 1098.46412903 800.71769104 1098.46412903 801.92810059 1097.2479248 C804.43369523 1094.73021568 806.93600858 1092.20928554 809.4375 1089.6875 C812.7366168 1086.36161811 816.03914374 1083.03917664 819.34375 1079.71875 C820.08669312 1078.96750854 820.82963623 1078.21626709 821.59509277 1077.44226074 C825.64016663 1073.37848187 829.78383962 1069.51424674 834.12780762 1065.77233887 C836.61072838 1063.59791996 838.9330379 1061.28689236 841.25 1058.9375 C841.70802002 1058.47569336 842.16604004 1058.01388672 842.63793945 1057.53808594 C844.07366175 1056.09037278 845.50602432 1054.63941143 846.9375 1053.1875 C852.49683611 1047.5487988 858.05247327 1041.97910891 864.07421875 1036.828125 C867.35320658 1033.94096591 870.3801375 1030.80551496 873.4375 1027.6875 C877.77981819 1023.29834141 882.12820501 1019.03550844 886.8515625 1015.0546875 C890.43838803 1011.84400847 893.77040827 1008.3735602 897.15405273 1004.95141602 C900.63817178 1001.44296441 904.20889608 998.12566291 907.98046875 994.92578125 C911.30382082 991.97390166 914.3693735 988.76257606 917.4921875 985.6015625 C920.22873479 982.89998706 923.08729366 980.39671265 926.0078125 977.8984375 C928.77720162 975.44298723 931.33785124 972.79653661 933.93359375 970.16015625 C936.51996151 967.61412171 939.2528528 965.26728443 942.00390625 962.90234375 C944.46913673 960.71600803 946.75678637 958.38129642 949.06347656 956.03027344 C950.86767063 954.25616494 952.72588669 952.59809622 954.64453125 950.94921875 C958.90998856 947.24033845 963.02516948 943.39014489 967.125 939.5 C974.34727341 932.67532635 981.61622798 925.90573289 988.9375 919.1875 C989.44087891 918.72537109 989.94425781 918.26324219 990.46289062 917.78710938 C993.45791632 915.03814484 996.45523181 912.29169016 999.45361328 909.54638672 C1001.44832518 907.71970583 1003.44209907 905.89200295 1005.43579102 904.06420898 C1006.43489624 903.14826778 1007.43408211 902.23241455 1008.43334961 901.31665039 C1010.95946074 899.00156372 1013.48455298 896.68538212 1016.0078125 894.3671875 C1022.28420289 888.60299218 1028.59369992 882.8775107 1034.9375 877.1875 C1040.16094801 872.4955316 1045.37393282 867.79304194 1050.5625 863.0625 C1054.28546068 859.67325008 1058.04344716 856.33315247 1061.84375 853.03125 C1064.40169027 850.77873543 1066.9192898 848.48432908 1069.4375 846.1875 C1073.22412998 842.73421847 1077.0422632 839.32650949 1080.91015625 835.96484375 C1083.27239173 833.89390513 1085.60545853 831.79237152 1087.9375 829.6875 C1093.28539986 824.86628725 1098.68052215 820.10855973 1104.16015625 815.4375 C1109.71872479 810.69670677 1115.24687974 805.94663783 1120.625 801 C1124.09886309 797.81013156 1127.63660025 794.76701106 1131.3125 791.8125 C1135.515644 788.42364031 1139.49953177 784.87510734 1143.4375 781.1875 C1148.24296293 776.68791006 1153.1891098 772.45646753 1158.32421875 768.33203125 C1160.93597623 766.18875044 1163.44115302 763.9636967 1165.9375 761.6875 C1170.23741791 757.76858748 1174.69669547 754.09579131 1179.21875 750.4375 C1181.85897729 748.25248431 1184.4047972 745.99578609 1186.9375 743.6875 C1191.13479034 739.86579137 1195.47460231 736.27275811 1199.88671875 732.703125 C1203.45806624 729.75824948 1206.9496164 726.73029913 1210.4375 723.6875 C1215.59314063 719.19229267 1220.81261424 714.80126336 1226.12890625 710.49609375 C1229.44048593 707.77405815 1232.6906 704.98606861 1235.9375 702.1875 C1240.95415555 697.86504111 1246.0293277 693.62971217 1251.171875 689.45703125 C1254.23117847 686.94650114 1257.24059621 684.38233808 1260.25 681.8125 C1264.70818766 678.01144788 1269.24662825 674.34152351 1273.875 670.75 C1279.38315059 666.47441035 1284.70062728 662.0172201 1289.97290039 657.45507812 C1293.97375148 653.99767738 1298.04131393 650.64891708 1302.19140625 647.37109375 C1305.03848313 645.10720189 1307.85657009 642.81046591 1310.6730957 640.50878906 C1318.325342 634.25889988 1326.07706055 628.17315141 1333.9375 622.1875 C1336.1061471 620.52340333 1338.27178099 618.85540466 1340.4375 617.1875 C1341.53120756 616.34629898 1342.62495742 615.50515296 1343.71875 614.6640625 C1345.7822706 613.07683413 1347.84459006 611.48808583 1349.90625 609.8984375 C1365.99817921 597.49769824 1382.18133405 585.21967138 1398.44921875 573.05078125 C1400.95793875 571.172195 1403.46377952 569.28983246 1405.96875 567.40625 C1422.42415598 555.03557584 1438.99071791 542.82739044 1455.69921875 530.80078125 C1457.95816207 529.17260744 1460.21392661 527.54012375 1462.46875 525.90625 C1471.87298158 519.09405469 1481.32518206 512.35506679 1490.82421875 505.67578125 C1492.95828971 504.17285882 1495.08900926 502.66530127 1497.21875 501.15625 C1498.29467407 500.39453491 1498.29467407 500.39453491 1499.39233398 499.61743164 C1500.71269904 498.68248532 1502.03259798 497.74688001 1503.35180664 496.81030273 C1517.70735925 486.65583599 1532.30154501 476.83742991 1546.875 467 C1547.82015472 466.36198456 1548.76530945 465.72396912 1549.73910522 465.06661987 C1563.45862081 455.81275106 1577.24025009 446.69462346 1591.24902344 437.88330078 C1593.97833057 436.16174545 1596.6974706 434.4251353 1599.4140625 432.68359375 C1629.7131288 413.2690259 1660.59332171 394.86028138 1691.9375 377.1875 C1692.95457031 376.61322266 1693.97164062 376.03894531 1695.01953125 375.44726562 C1710.83539021 366.53545527 1726.81825725 358.01303393 1742.96777344 349.72314453 C1746.29338861 348.00347013 1749.59505512 346.24266616 1752.89404297 344.47265625 C1823.91107365 306.47750541 1901.07745039 275.76593711 1978.9375 255.1875 C1979.72278076 254.97951782 1980.50806152 254.77153564 1981.31713867 254.55725098 C2011.73816025 246.52319912 2042.23132402 239.54408012 2073.4375 235.375 C2074.1726886 235.27545013 2074.9078772 235.17590027 2075.66534424 235.07333374 C2099.05089122 231.95330867 2122.48311829 230.7974342 2146.0625 230.875 C2147.2560611 230.87715515 2148.44962219 230.8793103 2149.67935181 230.88153076 C2208.90671233 231.05223044 2267.86770149 241.32523913 2321.9375 266.1875 C2323.19336914 266.75090088 2323.19336914 266.75090088 2324.47460938 267.32568359 C2360.13515047 283.33501915 2392.59433524 305.62676805 2421.42578125 331.921875 C2422.82917568 333.18776733 2424.23927478 334.4466553 2425.6730957 335.67797852 C2431.19357482 340.42543925 2436.36507456 345.46548593 2441.5 350.625 C2442.31146484 351.43259766 2443.12292969 352.24019531 2443.95898438 353.07226562 C2448.82706297 357.9482023 2453.46439832 362.94860221 2457.9375 368.1875 C2458.92234935 369.31712843 2459.90799575 370.44606258 2460.89453125 371.57421875 C2502.34358028 419.34891158 2533.13089546 475.29914331 2557.9375 533.1875 C2558.20604797 533.81289673 2558.47459595 534.43829346 2558.75128174 535.0826416 C2567.05750752 554.45965834 2574.17333996 574.23036314 2580.9375 594.1875 C2581.29551697 595.2435141 2581.29551697 595.2435141 2581.6607666 596.32086182 C2589.23475927 618.72030846 2595.90913062 641.3251935 2601.9375 664.1875 C2602.1426825 664.96462341 2602.34786499 665.74174683 2602.55926514 666.54241943 C2628.99439377 766.93693936 2642.83325003 870.28880504 2656.625 1060.6875 C2656.68584778 1061.98121521 2656.74669556 1063.27493042 2656.80938721 1064.60784912 C2658.52650245 1101.58991591 2659.2610315 1138.57823586 2659.93328857 1175.59100342 C2660.04589174 1181.76707564 2660.1607495 1187.94310595 2660.27539062 1194.11914062 C2660.49824104 1206.14188815 2660.71868392 1218.16467842 2660.9375 1230.1875 C2662.84320071 1227.9706953 2664.74801667 1225.75314048 2666.65234375 1223.53515625 C2667.18645874 1222.91402954 2667.72057373 1222.29290283 2668.27087402 1221.6529541 C2672.14073922 1217.14378422 2675.9206301 1212.56862098 2679.66796875 1207.95703125 C2684.48438939 1202.07950589 2689.432443 1196.31138086 2694.35351562 1190.52148438 C2699.0726961 1184.96681966 2703.77825049 1179.40690075 2708.375 1173.75 C2712.33258188 1168.88620975 2716.40292446 1164.12868769 2720.49584961 1159.37915039 C2723.52695289 1155.85451081 2726.50735316 1152.29710118 2729.4375 1148.6875 C2733.37193256 1143.84073525 2737.42304574 1139.10470745 2741.49829102 1134.37670898 C2744.50995009 1130.87514698 2747.4680895 1127.33963443 2750.375 1123.75 C2754.51810991 1118.64442535 2758.8198045 1113.68949947 2763.14038086 1108.73461914 C2766.30215838 1105.10012149 2769.40600206 1101.43229157 2772.4375 1097.6875 C2776.55346851 1092.60306831 2780.83212719 1087.67391797 2785.13183594 1082.74536133 C2788.38495258 1079.00713917 2791.5701029 1075.22814641 2794.6875 1071.375 C2798.21941087 1067.01167215 2801.92456936 1062.8491152 2805.703125 1058.69921875 C2807.93884533 1056.18598768 2810.07127682 1053.61438521 2812.1875 1051 C2817.40268515 1044.56038007 2822.85081752 1038.33294597 2828.29101562 1032.08398438 C2830.87387409 1029.10894811 2833.43806914 1026.1180594 2836 1023.125 C2836.49089111 1022.55160889 2836.98178223 1021.97821777 2837.48754883 1021.38745117 C2838.47635203 1020.23219482 2839.46504049 1019.07684024 2840.45361328 1017.92138672 C2843.44675416 1014.42397202 2846.4437223 1010.92983609 2849.43994141 1007.43505859 C2851.92864291 1004.53197817 2854.41647552 1001.6281633 2856.90234375 998.72265625 C2863.66400405 990.82200267 2870.46175522 982.95347465 2877.27880859 975.10058594 C2878.96562335 973.15506336 2880.64924018 971.20681599 2882.33203125 969.2578125 C2887.07028472 963.77339898 2891.80923689 958.29850789 2896.6875 952.9375 C2899.65717972 949.66600165 2902.48089555 946.31780428 2905.25 942.875 C2909.14135488 938.06004256 2913.26879144 933.53662829 2917.49755859 929.02197266 C2920.59486226 925.69647767 2923.53349759 922.30057457 2926.375 918.75 C2930.40325518 913.72747494 2934.73227046 909.06006333 2939.14257812 904.37695312 C2942.36519343 900.93623783 2945.432515 897.43769536 2948.375 893.75 C2953.17681013 887.74995629 2958.44024591 882.22097074 2963.70703125 876.6328125 C2966.64782579 873.50974078 2969.50149177 870.32477908 2972.30078125 867.07421875 C2974.31623772 864.75091213 2976.37598462 862.47001535 2978.4375 860.1875 C2981.12733431 857.20687279 2983.80060364 854.21504767 2986.4375 851.1875 C2990.54832427 846.47047123 2994.7449226 841.83180291 2998.9375 837.1875 C3000.43778679 835.52109149 3001.93778872 833.85442647 3003.4375 832.1875 C3012.4375 822.1875 3012.4375 822.1875 3014.6953125 819.6796875 C3016.17042618 818.04010121 3017.64441652 816.39950345 3019.1171875 814.7578125 C3023.66429938 809.69288005 3028.2460477 804.66116708 3032.85107422 799.64892578 C3035.73143829 796.51118887 3038.59266247 793.35746182 3041.4375 790.1875 C3046.09883582 784.9953359 3050.81400194 779.85343865 3055.53466797 774.71533203 C3056.91106272 773.21629298 3058.28591739 771.71585924 3059.66015625 770.21484375 C3065.89939036 763.4003372 3072.1598854 756.60575685 3078.43017578 749.81982422 C3079.91160134 748.21554639 3081.39158992 746.60995634 3082.87109375 745.00390625 C3089.9360729 737.33675142 3097.04043545 729.70711397 3104.15966797 722.09033203 C3106.48790623 719.59839451 3108.81385528 717.10432687 3111.13964844 714.61010742 C3112.89012632 712.73378624 3114.64228554 710.85904519 3116.39453125 708.984375 C3118.75337636 706.45978024 3121.1039381 703.92782182 3123.44921875 701.390625 C3131.42754107 692.78663711 3139.61510756 684.42524183 3147.97314453 676.1887207 C3148.77606934 675.39425537 3149.57899414 674.59979004 3150.40625 673.78125 C3151.11201172 673.08708984 3151.81777344 672.39292969 3152.54492188 671.67773438 C3154.5177369 669.62439629 3156.38303942 667.53700527 3158.2421875 665.3828125 C3161.85317455 661.22656084 3165.677571 657.33596785 3169.59375 653.46875 C3170.29971313 652.76657349 3171.00567627 652.06439697 3171.73303223 651.34094238 C3174.71647375 648.37366234 3177.7059071 645.41244637 3180.69482422 642.45068359 C3182.89240579 640.27131535 3185.08687938 638.08885053 3187.28125 635.90625 C3187.94499634 635.250802 3188.60874268 634.595354 3189.29260254 633.92004395 C3193.16401347 630.06869087 3196.82362928 626.09704313 3200.39126587 621.96304321 C3202.20814802 619.87671443 3204.10429614 617.89142034 3206.05859375 615.93359375 C3206.76693359 615.22396484 3207.47527344 614.51433594 3208.20507812 613.78320312 C3208.92115234 613.07099609 3209.63722656 612.35878906 3210.375 611.625 C3211.08720703 610.90892578 3211.79941406 610.19285156 3212.53320312 609.45507812 C3215.84964554 606.14466013 3219.19153935 602.92414064 3222.75390625 599.87890625 C3228.27446874 595.12031585 3233.32238772 589.87211559 3238.4375 584.6875 C3244.24185647 578.80427489 3250.02116569 572.96518614 3256.31054688 567.59179688 C3258.28890129 565.88418964 3260.12275526 564.06705705 3261.9375 562.1875 C3265.06595964 559.01660002 3268.30605352 556.0618004 3271.68359375 553.16015625 C3273.8972561 551.22272213 3276.05975022 549.23620812 3278.21606445 547.23535156 C3283.39919929 542.42756709 3288.70793518 537.87148893 3294.21875 533.4375 C3297.06407378 531.08274929 3299.7839629 528.6274162 3302.5 526.125 C3307.47011783 521.56203871 3312.62255918 517.33931609 3317.9375 513.1875 C3318.95070312 512.37925781 3319.96390625 511.57101562 3321.0078125 510.73828125 C3390.51246324 455.36092665 3390.51246324 455.36092665 3422.5625 457.375 C3429.5407769 458.2226438 3435.9052057 460.0227769 3440.9375 465.1875 C3453.22221377 482.71083237 3450.90545362 503.87471987 3447.52392578 523.9765625 C3443.65245987 545.17453074 3437.69404029 565.75098452 3430.9375 586.1875 C3430.32696777 588.04568359 3430.32696777 588.04568359 3429.70410156 589.94140625 C3414.26571967 636.76202448 3395.10173276 682.23371321 3374.9375 727.1875 C3374.63283813 727.86729919 3374.32817627 728.54709839 3374.01428223 729.24749756 C3364.68002885 750.0652493 3355.03366514 770.72929437 3345.2421875 791.33544922 C3343.19747166 795.63868072 3341.15697422 799.94390098 3339.11737061 804.2495575 C3337.3941012 807.88707138 3335.6696874 811.52404188 3333.94494629 815.16085815 C3333.11715921 816.90645547 3332.28959789 818.65215987 3331.46228027 820.39797974 C3323.19172129 837.84552695 3323.19172129 837.84552695 3318.9375 846.1875 C3317.58851929 842.14055788 3319.09989218 839.96415773 3320.8203125 836.3046875 C3321.14168686 835.59950485 3321.46306122 834.8943222 3321.79417419 834.16777039 C3322.50077728 832.6185163 3323.21152799 831.07114907 3323.92581177 829.52542114 C3325.90247577 825.24248108 3327.84252978 820.94299098 3329.78515625 816.64453125 C3330.20089401 815.72612961 3330.61663177 814.80772797 3331.04496765 813.86149597 C3369.33408901 729.04648381 3406.95752696 640.84109612 3433.6875 483.9375 C3431.85000413 479.32592057 3429.09844486 476.22317673 3424.58203125 474.05859375 C3416.62448323 471.4374221 3408.40224229 474.67274996 3401.1328125 478.00390625 C3386.44835922 485.42582159 3372.63308273 494.58756876 3359.734375 504.77148438 C3357.9592737 506.17034138 3356.16964753 507.54821857 3354.375 508.921875 C3341.48686877 518.83857597 3329.39552319 529.64382798 3317.50927734 540.72900391 C3315.39166453 542.69399597 3313.25509124 544.63777774 3311.11889648 546.58251953 C3306.86390714 550.45773022 3302.68972209 554.38200505 3298.66235352 558.49511719 C3297.03532109 560.09152041 3295.35685919 561.55257281 3293.61328125 563.01953125 C3287.72376714 568.14466449 3282.2639655 573.71193977 3276.75561523 579.23901367 C3274.87920525 581.12078274 3272.99751031 582.99714738 3271.11523438 584.87304688 C3265.74994586 590.23566906 3260.4553438 595.58799516 3255.53735352 601.36938477 C3251.68445481 605.74791928 3247.41281724 609.74751939 3243.25390625 613.83203125 C3239.16841862 617.87319171 3235.28863954 622.00551839 3231.54101562 626.36132812 C3229.2846653 628.9309841 3226.88448745 631.29808872 3224.4375 633.6875 C3220.62880666 637.43899794 3217.01783124 641.29339769 3213.546875 645.359375 C3211.40216726 647.79559641 3209.09456941 650.04280987 3206.77880859 652.31494141 C3205.00897269 654.1148143 3203.35542833 655.9684262 3201.7109375 657.8828125 C3197.94066646 662.21932203 3194.01908804 666.39636709 3190.0625 670.5625 C3185.02029985 675.89493186 3180.0235609 681.25504999 3175.140625 686.734375 C3172.43562821 689.74632178 3169.68819609 692.7173312 3166.9375 695.6875 C3161.88781538 701.14363621 3156.89837874 706.65040304 3151.9375 712.1875 C3150.39597359 713.8959599 3148.85430647 715.60429284 3147.3125 717.3125 C3144.10975474 720.86926201 3140.94895576 724.45853356 3137.80859375 728.0703125 C3135.59267041 730.57768296 3133.32709092 733.03651589 3131.0625 735.5 C3127.79220527 739.08011212 3124.65723383 742.71666237 3121.625 746.5 C3117.5506615 751.55506423 3113.18648935 756.26776106 3108.73950195 760.9909668 C3104.67597803 765.33026593 3100.8958013 769.83482329 3097.1796875 774.4765625 C3094.69843212 777.47654723 3092.08880746 780.33898785 3089.4375 783.1875 C3085.12745563 787.81990226 3081.08688148 792.60873083 3077.1171875 797.5390625 C3074.95992601 800.16025119 3072.72439 802.67904281 3070.4375 805.1875 C3067.32291332 808.60489372 3064.3456338 812.0927235 3061.4375 815.6875 C3058.5293662 819.2822765 3055.55208668 822.77010628 3052.4375 826.1875 C3048.59313519 830.4103256 3044.97224466 834.77394573 3041.37890625 839.2109375 C3038.65219517 842.53534365 3035.86669978 845.80348035 3033.0625 849.0625 C3025.01851907 858.41474683 3017.0375643 867.807421 3009.25 877.375 C3006.67603455 880.50549851 3004.06173097 883.59915634 3001.4375 886.6875 C2996.53202058 892.46295014 2991.71853401 898.30847083 2986.9375 904.1875 C2981.01184 911.44615346 2975.06071689 918.68347887 2969.10205078 925.91503906 C2964.36763064 931.66205272 2959.64869436 937.42142721 2954.9375 943.1875 C2954.24785156 944.02925781 2953.55820312 944.87101562 2952.84765625 945.73828125 C2946.76029911 953.16859964 2940.70337955 960.62344241 2934.64892578 968.08056641 C2932.93233172 970.19386266 2931.21441621 972.30607769 2929.49609375 974.41796875 C2924.33330757 980.76445073 2919.18104752 987.11770143 2914.08203125 993.515625 C2911.83879084 996.3104819 2909.57685364 999.08943625 2907.3125 1001.8671875 C2902.18022548 1008.163728 2897.10164533 1014.49492843 2892.10229492 1020.89746094 C2888.60026818 1025.37125426 2885.02953052 1029.78576022 2881.4375 1034.1875 C2875.51284029 1041.45082952 2869.70480184 1048.79893615 2863.9375 1056.1875 C2858.15196161 1063.59942692 2852.32281977 1070.9673101 2846.375 1078.25 C2841.61007807 1084.08682001 2836.96304244 1089.99598313 2832.390625 1095.984375 C2826.55553744 1103.6235476 2820.57882115 1111.15438931 2814.55444336 1118.64477539 C2809.7844202 1124.57627694 2805.10150152 1130.56167453 2800.5 1136.625 C2795.6581864 1143.00313738 2790.67978069 1149.24973421 2785.60620117 1155.44458008 C2781.43331456 1160.54885245 2777.39436201 1165.73997965 2773.39453125 1170.98046875 C2769.4295672 1176.17180911 2765.37162666 1181.29079566 2761.32861328 1186.42138672 C2759.02875763 1189.34121048 2756.73334055 1192.26451893 2754.4375 1195.1875 C2753.5208549 1196.35418361 2752.60418823 1197.52085027 2751.6875 1198.6875 C2751.23375 1199.265 2750.78 1199.8425 2750.3125 1200.4375 C2746.18750004 1205.68749995 2746.18750004 1205.68749995 2744.81323242 1207.43652344 C2743.89406687 1208.60640016 2742.97495905 1209.77632223 2742.0559082 1210.94628906 C2739.80293906 1213.81421157 2737.54906277 1216.6814099 2735.29296875 1219.546875 C2730.15323608 1226.07735886 2725.03629658 1232.62499359 2719.9375 1239.1875 C2714.40299557 1246.31079278 2708.8444184 1253.41446692 2703.26416016 1260.50195312 C2700.98663794 1263.39558827 2698.71225993 1266.29169323 2696.4375 1269.1875 C2695.5208477 1270.35417796 2694.60418105 1271.52084464 2693.6875 1272.6875 C2693.23375 1273.265 2692.78 1273.8425 2692.3125 1274.4375 C2687.27083333 1280.85416667 2682.22916667 1287.27083333 2677.1875 1293.6875 C2676.50651245 1294.5542334 2676.50651245 1294.5542334 2675.81176758 1295.43847656 C2674.89759985 1296.60193323 2673.98337484 1297.76534489 2673.0690918 1298.92871094 C2670.26382333 1302.49841631 2667.46040057 1306.06955665 2664.65966797 1309.64282227 C2663.72725141 1310.82990126 2662.79271222 1312.01531635 2661.85595703 1313.19897461 C2659.78990021 1315.81066331 2657.75896558 1318.43019017 2655.78515625 1321.11328125 C2650.4186358 1328.28635313 2644.93320266 1332.72873741 2635.9375 1334.1875 C2628.26599422 1334.8488367 2621.17463132 1333.20508799 2614.8203125 1328.6796875 C2607.99798516 1322.3844069 2605.77871972 1315.77664987 2605.390625 1306.6328125 C2605.33332718 1305.42399918 2605.33332718 1305.42399918 2605.27487183 1304.19076538 C2604.72655303 1291.61994424 2604.51743447 1279.03375784 2604.23600006 1266.45474243 C2602.39886962 1184.65443164 2598.34058075 1102.99588088 2519.66088867 654.37591553 C2518.97795739 652.30989283 2518.29976718 650.24238035 2517.62304688 648.17431641 C2500.86900515 597.21521247 2479.0242361 546.95470492 2450.9375 501.1875 C2450.15898682 499.91132813 2450.15898682 499.91132813 2449.36474609 498.609375 C2428.02746597 463.7663743 2402.1385995 429.81739923 2370.9375 403.1875 C2370.02613281 402.38699219 2369.11476562 401.58648438 2368.17578125 400.76171875 C2318.54108456 357.50292602 2255.46558393 332.09366006 2189.9375 327.1875 C2188.83801025 327.10290527 2188.83801025 327.10290527 2187.71630859 327.01660156 C2103.22268951 320.7796845 2018.63112916 344.94541552 1807.453125 439.77148438 C1804.65400782 441.3470744 1801.84328897 442.90072046 1799.03125 444.453125 C1784.54063047 452.47621837 1770.26057987 460.823954 1756.04833984 469.32714844 C1753.18741632 471.03804447 1750.32292025 472.74275199 1747.45703125 474.4453125 C1736.98924751 480.67649394 1726.64845298 487.0874977 1716.37695312 493.63671875 C1713.9283746 495.1933011 1711.47290253 496.73844318 1709.015625 498.28125 C1678.73326506 517.34578496 1649.20306748 537.60565009 1619.9375 558.1875 C1619.19757813 558.70699219 1618.45765625 559.22648437 1617.6953125 559.76171875 C1603.3342954 569.84553761 1589.05118308 580.03288657 1575.04223633 590.60205078 C1570.70943879 593.86884681 1566.348339 597.09387787 1561.9699707 600.29931641 C1553.31489918 606.63811841 1544.79811862 613.12865459 1536.3515625 619.7421875 C1531.99032919 623.15524282 1527.59287094 626.5192158 1523.1875 629.875 C1516.2849501 635.1387183 1509.44223141 640.47314743 1502.63037109 645.85351562 C1500.93019685 647.19325489 1499.22561952 648.52717726 1497.51953125 649.859375 C1489.81616468 655.87923159 1482.2062078 662.00593293 1474.62890625 668.18359375 C1471.64106942 670.61866179 1468.63902967 673.03487413 1465.625 675.4375 C1460.35664397 679.63985088 1455.14760529 683.91329764 1449.9375 688.1875 C1448.22927642 689.58346765 1446.52094143 690.97929898 1444.8125 692.375 C1443.40266358 693.5294167 1441.99285466 694.68386715 1440.58349609 695.83886719 C1439.39666277 696.81128892 1438.20944032 697.7832358 1437.02197266 698.75488281 C1428.88178163 705.41871382 1420.7898916 712.12661067 1412.82495117 718.99926758 C1409.40285465 721.94737583 1405.94443528 724.84003214 1402.4375 727.6875 C1396.43898278 732.56184415 1390.58620774 737.59852709 1384.73144531 742.64355469 C1382.40190877 744.6484525 1380.06632643 746.64623159 1377.73071289 748.64404297 C1363.08027101 761.14407706 1363.08027101 761.14407706 1348.6875 773.9375 C1345.45876378 776.86934093 1342.15490115 779.65007911 1338.75 782.375 C1332.68429782 787.27753486 1327.05585023 792.61008037 1321.3828125 797.95703125 C1318.25706818 800.9003424 1315.06876839 803.75580219 1311.81640625 806.55859375 C1307.80171955 810.03910176 1303.88136283 813.62723477 1299.9375 817.1875 C1298.27109149 818.68778679 1296.60442647 820.18778872 1294.9375 821.6875 C1293.69613281 822.80511719 1293.69613281 822.80511719 1292.4296875 823.9453125 C1290.79010121 825.42042618 1289.14950345 826.89441652 1287.5078125 828.3671875 C1282.44211123 832.9149896 1277.40944274 837.49722968 1272.39672852 842.10327148 C1269.28152807 844.96323387 1266.1491546 847.80250001 1263 850.625 C1257.48156556 855.57924944 1252.03958239 860.61445853 1246.59765625 865.65234375 C1244.99422722 867.135044 1243.38828374 868.61495836 1241.78125 870.09375 C1233.81750744 877.42435029 1225.91460357 884.81832314 1218.02539062 892.22900391 C1215.8895191 894.23250734 1213.7499483 896.23199022 1211.609375 898.23046875 C1210.54553589 899.22469849 1210.54553589 899.22469849 1209.46020508 900.23901367 C1208.11715434 901.49400582 1206.77330351 902.74814257 1205.4284668 904.0012207 C1201.72692692 907.46304733 1198.10687603 910.98760045 1194.55517578 914.60327148 C1192.88917699 916.23482387 1191.1574891 917.74734252 1189.375 919.25 C1184.74013588 923.23435687 1180.48544721 927.58473496 1176.21264648 931.94946289 C1173.27807968 934.92753574 1170.29966157 937.77795083 1167.125 940.5 C1162.13779152 944.80495067 1157.55846475 949.49652063 1152.9375 954.1875 C1151.23168982 955.91915579 1149.52339134 957.64836426 1147.8125 959.375 C1146.69488281 960.51001953 1146.69488281 960.51001953 1145.5546875 961.66796875 C1143.5143781 963.6321472 1141.45420149 965.47776802 1139.30664062 967.31835938 C1134.52949511 971.46750501 1130.08516545 975.9260289 1125.63197327 980.41786194 C1124.11937668 981.94343977 1122.60348798 983.46568086 1121.08679199 984.98718262 C1117.86750888 988.21778953 1114.65219888 991.45233223 1111.4375 994.6875 C1107.7067435 998.44201127 1103.97429249 1002.19480613 1100.23756409 1005.94337463 C1098.75779444 1007.42953689 1097.28111435 1008.91871996 1095.80456543 1010.40808105 C1091.25479929 1014.9742803 1086.6602164 1019.39265111 1081.76651001 1023.58779907 C1078.73469559 1026.23950481 1075.90061729 1029.08149665 1073.05859375 1031.93359375 C1072.44282974 1032.54840103 1071.82706573 1033.16320831 1071.19264221 1033.79664612 C1069.90332358 1035.08529025 1068.61524267 1036.37517388 1067.32836914 1037.66625977 C1065.3795313 1039.62045624 1063.42540728 1041.56925147 1061.47070312 1043.51757812 C1060.20801262 1044.78092954 1058.94563242 1046.04459118 1057.68359375 1047.30859375 C1057.11047958 1047.87968369 1056.53736542 1048.45077362 1055.94688416 1049.03916931 C1053.09363293 1051.90864766 1050.35837463 1054.82801021 1047.72680664 1057.90258789 C1043.44037925 1062.85228379 1038.79733005 1067.44026676 1034.15155029 1072.0486145 C1032.52516731 1073.66203514 1030.90210304 1075.27873271 1029.27978516 1076.89624023 C1025.25286577 1080.90991101 1021.22047337 1084.91806835 1017.18823242 1088.9263916 C1013.7692138 1092.32555724 1010.35233601 1095.72684867 1006.93817139 1099.13088989 C1005.35228994 1100.71037066 1003.76338904 1102.28676797 1002.17431641 1103.86303711 C997.42158378 1108.59195461 992.79624098 1113.36901286 988.43579102 1118.46435547 C986.22507128 1121.00684526 983.8672387 1123.35179731 981.46875 1125.71875 C980.98474731 1126.19896606 980.50074463 1126.67918213 980.0020752 1127.1739502 C977.97450354 1129.18549879 975.94087151 1131.19087653 973.90771484 1133.19677734 C968.62941188 1138.4106901 963.44621342 1143.63393387 958.62304688 1149.27929688 C954.73351588 1153.68262455 950.44347753 1157.71740757 946.25390625 1161.83203125 C942.18876937 1165.85306176 938.33229588 1169.9649201 934.60351562 1174.29882812 C932.01550941 1177.2327109 929.23444706 1179.95467601 926.4375 1182.6875 C922.3587704 1186.71540431 918.45175254 1190.79009775 914.7421875 1195.1640625 C911.96033498 1198.28310927 908.96215145 1201.18339641 905.98828125 1204.1171875 C902.71696498 1207.3614681 899.66771431 1210.72385165 896.6796875 1214.2265625 C893.96827636 1217.27841988 891.03412853 1220.09894766 888.12890625 1222.96484375 C885.51648932 1225.6145144 883.10447379 1228.39922803 880.68359375 1231.22265625 C878.21268611 1234.00311832 875.5558306 1236.57868218 872.90625 1239.1875 C870.99763545 1241.12641002 869.21039448 1243.12449551 867.4375 1245.1875 C864.49171205 1248.61532597 861.37574653 1251.79884817 858.125 1254.9375 C856.23094277 1256.88567315 854.44799805 1258.87464327 852.66796875 1260.92578125 C848.97071484 1265.18200248 845.13010528 1269.28577587 841.25 1273.375 C834.91063298 1280.08330939 828.61947075 1286.83214636 822.37304688 1293.62695312 C819.89825436 1296.31723777 817.41751021 1299.00202616 814.9375 1301.6875 C813.93747298 1302.77080839 812.93747294 1303.85414169 811.9375 1304.9375 C805.93750001 1311.43749999 805.93750001 1311.43749999 804.43725586 1313.06274414 C803.43804262 1314.14523871 802.43885638 1315.22775821 801.43969727 1316.31030273 C798.92788165 1319.03167508 796.41558667 1321.75260195 793.90234375 1324.47265625 C787.68799454 1331.19944656 781.48927978 1337.9402227 775.30517578 1344.69482422 C773.91170848 1346.21564876 772.51662249 1347.73497324 771.12109375 1349.25390625 C766.13373362 1354.68404917 761.17451152 1360.13768716 756.25 1365.625 C753.19459826 1369.01071544 750.10893016 1372.3683191 747.0234375 1375.7265625 C744.14327393 1378.86417086 741.28218386 1382.01770941 738.4375 1385.1875 C735.12748278 1388.8758049 731.790355 1392.53815765 728.4375 1396.1875 C723.56806955 1401.48871923 718.74326976 1406.82854811 713.9375 1412.1875 C709.09228859 1417.59043359 704.22537784 1422.97110539 699.3125 1428.3125 C695.75496901 1432.18117822 692.25460425 1436.09084125 688.8125 1440.0625 C685.91898991 1443.34181143 682.94661641 1446.54856712 679.984375 1449.765625 C677.43194857 1452.54244057 674.90766712 1455.33730717 672.4375 1458.1875 C669.49905935 1461.57800844 666.47633698 1464.88716982 663.4375 1468.1875 C659.78891933 1472.15088911 656.18868792 1476.14800897 652.66015625 1480.21875 C650.71590864 1482.44074727 648.73413036 1484.62605223 646.75 1486.8125 C643.11466172 1490.83667752 639.57598304 1494.93246825 636.0625 1499.0625 C632.2132264 1503.5869881 628.29380476 1508.0235841 624.25 1512.375 C620.86221242 1516.02158939 617.61851906 1519.74367772 614.5 1523.625 C610.65639943 1528.40371628 606.56789836 1532.87907687 602.37915039 1537.35131836 C599.26196055 1540.69849327 596.30176202 1544.11755023 593.4375 1547.6875 C590.09448041 1551.8541621 586.58634863 1555.79169812 582.9375 1559.6875 C578.47875556 1564.44838994 574.2995217 1569.3521782 570.21484375 1574.44140625 C567.71923453 1577.45069147 565.09983195 1580.32687022 562.4375 1583.1875 C558.14789593 1587.79748943 554.13338878 1592.56533516 550.18359375 1597.47265625 C547.8491941 1600.29423495 545.41759402 1602.99340712 542.9375 1605.6875 C539.64418301 1609.26542463 536.49098679 1612.90289666 533.4375 1616.6875 C529.60030969 1621.44345419 525.54364899 1625.94254801 521.40625 1630.4375 C518.99371896 1633.12487634 516.7049379 1635.87715444 514.4375 1638.6875 C511.38401321 1642.47210334 508.23081699 1646.10957537 504.9375 1649.6875 C500.91775464 1654.05920463 497.13761805 1658.56536886 493.40625 1663.18359375 C488.91327164 1668.6505247 484.23003937 1673.95425791 479.58398438 1679.29101562 C475.50847475 1683.98534521 471.47566153 1688.71648741 467.43457031 1693.44042969 C465.90463241 1695.22585624 464.37079199 1697.00786145 462.8359375 1698.7890625 C458.33099578 1704.0213868 453.84836652 1709.26095663 449.5 1714.625 C445.39964086 1719.6744477 441.15380651 1724.58523017 436.8840332 1729.4909668 C429.98997327 1737.41516205 423.17991012 1745.40503807 416.5625 1753.5625 C412.39593577 1758.68483524 408.07548719 1763.66167378 403.73706055 1768.63793945 C399.8150046 1773.14689957 396.00718135 1777.73448064 392.24609375 1782.37890625 C389.52405815 1785.69048593 386.73606861 1788.9406 383.9375 1792.1875 C379.61810414 1797.20060059 375.38652564 1802.2728771 371.21484375 1807.41015625 C368.65545946 1810.53146367 366.05156209 1813.6120003 363.4375 1816.6875 C360.06466411 1820.65653543 356.72573355 1824.64767021 353.4375 1828.6875 C349.68962202 1833.2920358 345.86766556 1837.82769191 342.0234375 1842.3515625 C338.37890593 1846.64763044 334.8096266 1851.00118341 331.25390625 1855.37109375 C328.65962734 1858.52535192 326.02143735 1861.6395298 323.375 1864.75 C319.50203634 1869.3039243 315.73127305 1873.92245053 312.01953125 1878.609375 C309.60665824 1881.59717273 307.11950298 1884.5180302 304.625 1887.4375 C300.80197431 1891.91609034 297.10894337 1896.47240502 293.5 1901.125 C289.29677648 1906.54105288 284.91242044 1911.76129804 280.41821289 1916.93725586 C276.96820328 1920.93097762 273.66894096 1925.01549553 270.4375 1929.1875 C266.25682828 1934.58502429 261.89359601 1939.7830501 257.41796875 1944.9375 C253.96807862 1948.93117126 250.66887034 1953.01558671 247.4375 1957.1875 C243.73124915 1961.97251551 239.90566879 1966.61737857 235.9375 1971.1875 C231.46316709 1976.34144197 227.19405565 1981.61511449 223.01171875 1987.0078125 C219.91444118 1990.98621213 216.71729259 1994.85855716 213.4375 1998.6875 C209.24672135 2003.58389915 205.22913558 2008.58825048 201.2734375 2013.67578125 C196.9970134 2019.15683186 192.57156491 2024.5086285 188.13623047 2029.86132812 C184.43817325 2034.33509518 180.81271363 2038.85539721 177.25 2043.4375 C173.74481646 2047.94416455 170.14966192 2052.34975913 166.4375 2056.6875 C162.22891301 2061.60632792 158.18667357 2066.62991894 154.2097168 2071.73730469 C150.06490034 2077.05218895 145.82138077 2082.28300003 141.56298828 2087.50708008 C138.67144443 2091.05446022 135.78990728 2094.6084795 132.9375 2098.1875 C130.08527448 2101.76629245 127.20397524 2105.32012718 124.3125 2108.8671875 C119.18022548 2115.163728 114.10164533 2121.49492843 109.10229492 2127.89746094 C105.60026923 2132.37125293 102.02958811 2136.78580847 98.4375 2141.1875 C93.90995928 2146.73668059 89.44234138 2152.32665637 85.03125 2157.96875 C81.19641452 2162.87067014 77.31027659 2167.73009318 73.41552734 2172.58447266 C70.08262162 2176.74334533 66.78250602 2180.92627933 63.5 2185.125 C59.51820234 2190.21658557 55.46429029 2195.24442235 51.375 2200.25 C46.64906878 2206.036108 42.06081827 2211.90236825 37.53125 2217.84375 C34.5753866 2221.68637241 31.50632678 2225.43493114 28.4375 2229.1875 C23.64989069 2235.04428172 18.98112499 2240.97230082 14.390625 2246.984375 C8.55553744 2254.6235476 2.57882115 2262.15438931 -3.44555664 2269.64477539 C-8.21558264 2275.57628048 -12.89837596 2281.56176484 -17.5 2287.625 C-23.38391067 2295.37298872 -29.48113648 2302.92900684 -35.64794922 2310.45263672 C-37.60000323 2312.84671607 -39.51910841 2315.2664085 -41.4375 2317.6875 C-42.64320793 2319.18961113 -43.85134515 2320.68977727 -45.0625 2322.1875 C-45.619375 2322.88101563 -46.17625 2323.57453125 -46.75 2324.2890625 C-61.88888227 2342.44170374 -86.13860141 2353.27768967 -109.375 2355.9375 C-110.93610427 2356.04382105 -112.49893541 2356.1273629 -114.0625 2356.1875 C-114.89523438 2356.22746094 -115.72796875 2356.26742187 -116.5859375 2356.30859375 C-143.77611996 2356.9863549 -168.96254683 2346.40332049 -188.70751953 2327.99121094 C-201.77959363 2315.35363123 -210.58214033 2298.72121525 -215.0625 2281.1875 C-215.289375 2280.30320313 -215.51625 2279.41890625 -215.75 2278.5078125 C-217.17453956 2271.68189378 -217.29593328 2264.82270523 -217.375 2257.875 C-217.40158691 2256.48885498 -217.40158691 2256.48885498 -217.42871094 2255.07470703 C-217.41405023 2240.99798568 -213.15735033 2227.28302055 -209.46875 2213.8046875 C-209.00900424 2212.10975204 -208.54974503 2210.41468454 -208.09092712 2208.71949768 C-207.10478058 2205.07918453 -206.11576367 2201.43966865 -205.1244812 2197.80075073 C-203.52659322 2191.93389147 -201.93641451 2186.06496003 -200.34790039 2180.19555664 C-200.07581662 2179.19027452 -199.80373285 2178.18499239 -199.52340412 2177.14924717 C-198.9660329 2175.08979311 -198.40869095 2173.03033113 -197.85137749 2170.97086143 C-196.99614665 2167.81117558 -196.14034849 2164.65164383 -195.28443909 2161.49214172 C-188.97986207 2138.21464516 -182.72974298 2114.92262547 -176.5 2091.625 C-176.0777458 2090.0460111 -176.0777458 2090.0460111 -175.64696121 2088.43512344 C-163.60559988 2043.39945686 -151.75811247 1998.31414625 -140.0625 1953.1875 C-139.85866196 1952.40104599 -139.65482391 1951.61459198 -139.44480896 1950.80430603 C-133.6069538 1928.2765508 -127.8162301 1905.73688161 -122.0625 1883.1875 C-121.87084007 1882.43657074 -121.67918015 1881.68564148 -121.48171234 1880.91195679 C-98.30081587 1790.08454398 -75.83877348 1699.09023453 -1.59083557 1363.79244232 C-1.05786881 1361.16466607 -0.52407017 1358.53705989 0.0098877 1355.90948486 C20.7587163 1253.76128181 39.4781974 1151.16724927 95.74609375 688.57910156 C95.92396307 685.42736608 96.1092435 682.27616685 96.296875 679.125 C97.99990356 650.04541607 98.14083315 620.95681081 98.18247986 591.83640289 C98.18738902 588.87934932 98.19529249 585.92231635 98.20373535 582.965271 C98.40621224 500.3695345 95.72224239 411.25636631 35.9375 281.1875 C27.54510394 273.92848218 15.62312511 271.54497572 4.7109375 271.96875 C3.79570312 272.0409375 2.88046875 272.113125 1.9375 272.1875 C0.75414063 272.2803125 -0.42921875 272.373125 -1.6484375 272.46875 C-55.65855207 277.46589192 -107.96453993 304.10217507 -154.0625 331.1875 C-154.92520508 331.6937793 -155.78791016 332.20005859 -156.67675781 332.72167969 C-162.50580234 336.15558901 -168.29406766 339.65286243 -174.0625 343.1875 C-174.77631836 343.62255859 -175.49013672 344.05761719 -176.22558594 344.50585938 C-206.77601669 363.19520202 -236.13902234 384.09499624 -265.0625 405.1875 C-265.8344873 405.74937012 -266.60647461 406.31124023 -267.40185547 406.89013672 C-278.44209434 414.93487398 -289.29660614 423.18745018 -300.04785156 431.61376953 C-302.95581825 433.88531016 -305.88320305 436.13108198 -308.8125 438.375 C-321.05674303 447.78421805 -333.10482435 457.41728355 -345.0625 467.1875 C-346.00609375 467.95707031 -346.9496875 468.72664063 -347.921875 469.51953125 C-350.638669 471.73824635 -353.35091274 473.96242444 -356.0625 476.1875 C-356.68737305 476.69893555 -357.31224609 477.21037109 -357.95605469 477.73730469 C-367.18483608 485.29208889 -376.33418203 492.92456836 -385.36083984 500.71972656 C-388.2551707 503.21624265 -391.15950854 505.70106683 -394.0625 508.1875 C-394.63806641 508.68121094 -395.21363281 509.17492188 -395.80664062 509.68359375 C-398.75602819 512.21352754 -401.70886064 514.7392525 -404.66796875 517.2578125 C-411.08395489 522.72525005 -417.40776469 528.26312482 -423.62109375 533.9609375 C-425.72404833 535.87883207 -427.84919156 537.76126045 -430 539.625 C-433.94917367 543.05518576 -437.79272305 546.59753518 -441.64038086 550.14038086 C-444.4172637 552.69290453 -447.21222015 555.21725746 -450.0625 557.6875 C-454.9662979 561.94286181 -459.72644814 566.3550961 -464.50244141 570.75244141 C-466.50509498 572.59463197 -468.51209526 574.43204436 -470.51928711 576.26928711 C-473.03565137 578.57322293 -475.54923339 580.8801861 -478.0625 583.1875 C-478.56330078 583.64705078 -479.06410156 584.10660156 -479.58007812 584.58007812 C-486.38222419 590.82623779 -493.14225558 597.11658921 -499.875 603.4375 C-500.91466919 604.411427 -500.91466919 604.411427 -501.9753418 605.4050293 C-505.40055887 608.62734327 -508.77101135 611.88686709 -512.07421875 615.234375 C-514.63244977 617.81291688 -517.24433215 620.25900533 -520 622.625 C-524.5920351 626.58024898 -528.81555011 630.86807656 -533.0625 635.1875 C-534.58077606 636.73168521 -536.10158735 638.27338206 -537.625 639.8125 C-538.28628906 640.48539063 -538.94757813 641.15828125 -539.62890625 641.8515625 C-541.52280431 643.66946144 -543.43281452 645.36061552 -545.43040466 647.05738831 C-551.42618251 652.2940719 -556.98886639 657.97416964 -562.60961914 663.60522461 C-563.86030295 664.85455123 -565.11119892 666.10366549 -566.36228943 667.35258484 C-569.74054506 670.72630391 -573.11565662 674.10315167 -576.49005437 677.48072886 C-580.03267425 681.02589192 -583.57774637 684.56860149 -587.12242126 688.11170959 C-593.07307818 694.06055052 -599.02163116 700.01148914 -604.96899414 705.96362305 C-611.83129715 712.83136757 -618.69719501 719.69550238 -625.56497103 726.55777353 C-631.47616978 732.4644249 -637.38540579 738.37303457 -643.29302496 744.28326613 C-646.8149294 747.8067244 -650.33749364 751.32951592 -653.86183357 754.85053825 C-657.17606228 758.16186461 -660.48780901 761.47565392 -663.79770851 764.79130745 C-665.00816258 766.00307647 -666.21945484 767.21400891 -667.43167496 768.42401123 C-675.76101043 776.73846293 -675.76101043 776.73846293 -683.60465145 785.50934696 C-686.41141198 788.74025439 -689.50841935 791.69283574 -692.5625 794.6875 C-696.97335229 799.05122895 -701.26013958 803.42190974 -705.26171875 808.16796875 C-708.24322479 811.5116534 -711.46803982 814.61260375 -714.65429688 817.75976562 C-718.05401605 821.13382654 -721.25043625 824.61273895 -724.35546875 828.26171875 C-727.05228013 831.30411695 -729.97784396 834.11075809 -732.87109375 836.96484375 C-735.48351068 839.6145144 -737.89552621 842.39922803 -740.31640625 845.22265625 C-742.7860936 848.00174514 -745.44153322 850.57610496 -748.08984375 853.18359375 C-750.63587829 855.76996151 -752.98271557 858.5028528 -755.34765625 861.25390625 C-757.53399197 863.71913673 -759.86870358 866.00678637 -762.21972656 868.31347656 C-763.99383506 870.11767063 -765.65190378 871.97588669 -767.30078125 873.89453125 C-771.00966094 878.15998787 -774.8598427 882.2751821 -778.75 886.375 C-785.08794999 893.0818099 -791.37762574 899.82918567 -797.62255859 906.62255859 C-799.61341881 908.78624356 -801.60918998 910.94537409 -803.60473633 913.10473633 C-809.31727186 919.28697126 -815.01077137 925.48640469 -820.69482422 931.69482422 C-822.08829152 933.21564876 -823.48337751 934.73497324 -824.87890625 936.25390625 C-829.86626638 941.68404917 -834.82548848 947.13768716 -839.75 952.625 C-842.33865036 955.49350445 -844.94839108 958.34222981 -847.5625 961.1875 C-852.43194104 966.48873075 -857.25573983 971.82942683 -862.0625 977.1875 C-863.56221128 978.85442647 -865.06221321 980.52109149 -866.5625 982.1875 C-867.305 983.0125 -868.0475 983.8375 -868.8125 984.6875 C-872.1875 988.4375 -872.1875 988.4375 -875.5625 992.1875 C-876.30242187 993.00992188 -877.04234375 993.83234375 -877.8046875 994.6796875 C-879.32958244 996.37342894 -880.85565402 998.06611169 -882.3828125 999.7578125 C-885.78122932 1003.52487115 -889.1706661 1007.29665586 -892.5 1011.125 C-896.15187053 1015.31914365 -899.90516184 1019.41844292 -903.65234375 1023.52734375 C-906.23243136 1026.37505795 -908.76451856 1029.25994018 -911.28515625 1032.16015625 C-913.35609487 1034.52239173 -915.45762848 1036.85545853 -917.5625 1039.1875 C-922.37264801 1044.52312637 -927.12230237 1049.90336881 -931.77734375 1055.375 C-936.67824205 1061.13014653 -941.60428271 1066.83660476 -946.75 1072.375 C-950.13774373 1076.02163376 -953.38147796 1079.74367401 -956.5 1083.625 C-960.34295479 1088.40291338 -964.43081329 1092.87744984 -968.61865234 1097.34912109 C-972.54156854 1101.56179105 -976.18161024 1105.95163555 -979.78515625 1110.44140625 C-982.28076469 1113.45069052 -984.90015143 1116.32688654 -987.5625 1119.1875 C-991.03669243 1122.92077255 -994.3631871 1126.71121111 -997.5625 1130.6875 C-1000.76181938 1134.66379694 -1004.0883704 1138.45416073 -1007.5625 1142.1875 C-1011.87249105 1146.81995661 -1015.91311396 1151.60872516 -1019.8828125 1156.5390625 C-1022.04007399 1159.16025119 -1024.27561 1161.67904281 -1026.5625 1164.1875 C-1029.67708668 1167.60489372 -1032.6543662 1171.0927235 -1035.5625 1174.6875 C-1039.17282442 1179.15026213 -1042.94677929 1183.41469533 -1046.8125 1187.65625 C-1049.14112053 1190.2759481 -1051.35812947 1192.9626531 -1053.5625 1195.6875 C-1056.4706338 1199.2822765 -1059.44791332 1202.77010628 -1062.5625 1206.1875 C-1066.40808741 1210.41166855 -1070.02980971 1214.77703073 -1073.625 1219.21484375 C-1076.33141072 1222.51545041 -1079.09291305 1225.76319191 -1081.875 1229 C-1082.37918457 1229.586604 -1082.88336914 1230.17320801 -1083.40283203 1230.77758789 C-1085.47507256 1233.18601812 -1087.54959444 1235.59247822 -1089.62402344 1237.99902344 C-1095.40920696 1244.71390375 -1101.13216294 1251.46172246 -1106.71875 1258.34375 C-1109.96148288 1262.2782659 -1113.29281608 1266.133957 -1116.62109375 1269.99609375 C-1119.65208284 1273.52067903 -1122.63242581 1277.07798832 -1125.5625 1280.6875 C-1128.99458013 1284.9154248 -1132.50801171 1289.0627789 -1136.0625 1293.1875 C-1140.38184272 1298.20064773 -1144.61347277 1303.27287515 -1148.78515625 1308.41015625 C-1151.34454217 1311.53146567 -1153.94851545 1314.61193239 -1156.5625 1317.6875 C-1161.46803208 1323.46286149 -1166.28278827 1329.30742298 -1171.0625 1335.1875 C-1175.79566387 1341.01031311 -1180.56673795 1346.79214273 -1185.4375 1352.5 C-1189.23838443 1356.95833471 -1192.90851243 1361.49658815 -1196.5 1366.125 C-1200.70333044 1371.54097401 -1205.08757446 1376.76129217 -1209.58178711 1381.93725586 C-1213.03179672 1385.93097762 -1216.33105904 1390.01549553 -1219.5625 1394.1875 C-1223.26875085 1398.97251551 -1227.09433121 1403.61737857 -1231.0625 1408.1875 C-1235.53683291 1413.34144197 -1239.80594435 1418.61511449 -1243.98828125 1424.0078125 C-1247.08555303 1427.9862047 -1250.28256703 1431.85868266 -1253.5625 1435.6875 C-1257.34443411 1440.1032253 -1260.99521758 1444.59665075 -1264.5625 1449.1875 C-1268.12979159 1453.77836105 -1271.78078217 1458.27158104 -1275.5625 1462.6875 C-1279.75083708 1467.58117111 -1283.76607981 1472.58270047 -1287.7199707 1477.66699219 C-1292.07248249 1483.24472951 -1296.57039657 1488.69744028 -1301.07910156 1494.14916992 C-1304.74578031 1498.58403302 -1308.37326975 1503.04536513 -1311.953125 1507.55078125 C-1314.18100904 1510.3356363 -1316.43169246 1513.10095116 -1318.68530273 1515.86499023 C-1323.81897145 1522.16172679 -1328.89772386 1528.49412058 -1333.89770508 1534.89746094 C-1337.94051787 1540.06210136 -1342.07977279 1545.14528496 -1346.2265625 1550.2265625 C-1349.71780083 1554.51201618 -1353.16068888 1558.83079453 -1356.5625 1563.1875 C-1360.50445046 1568.23596287 -1364.51280922 1573.22506894 -1368.5625 1578.1875 C-1373.09004072 1583.73668059 -1377.55765862 1589.32665637 -1381.96875 1594.96875 C-1385.30404796 1599.23213087 -1388.67513934 1603.46539107 -1392.0625 1607.6875 C-1395.92267095 1612.50015651 -1399.75812361 1617.33061603 -1403.5625 1622.1875 C-1407.36687785 1627.04438584 -1411.20247773 1631.87472275 -1415.0625 1636.6875 C-1420.31894792 1643.24304751 -1425.52192165 1649.8388863 -1430.70361328 1656.45361328 C-1432.98703303 1659.36716827 -1435.27500803 1662.27714193 -1437.5625 1665.1875 C-1438.47918823 1666.35414973 -1439.3958549 1667.52081639 -1440.3125 1668.6875 C-1489.8125 1731.6875 -1489.8125 1731.6875 -1491.18676758 1733.43652344 C-1492.10593313 1734.60640016 -1493.02504095 1735.77632223 -1493.9440918 1736.94628906 C-1496.19706094 1739.81421157 -1498.45093723 1742.6814099 -1500.70703125 1745.546875 C-1506.45429268 1752.84927776 -1512.16934726 1760.17608448 -1517.87036133 1767.51464844 C-1521.4208893 1772.08301061 -1524.98324639 1776.64161572 -1528.5625 1781.1875 C-1534.49534029 1788.72425449 -1540.37971987 1796.29847959 -1546.26416016 1803.87304688 C-1549.19549363 1807.64565634 -1552.12909198 1811.41650355 -1555.0625 1815.1875 C-1556.22917794 1816.68749123 -1557.3958446 1818.18749124 -1558.5625 1819.6875 C-1579.5625 1846.6875 -1579.5625 1846.6875 -1581.31347656 1848.9387207 C-1582.47693312 1850.43461662 -1583.64034478 1851.93054745 -1584.80371094 1853.42651367 C-1587.76911998 1857.23959776 -1590.73537262 1861.05202064 -1593.703125 1864.86328125 C-1599.64121373 1872.49065384 -1605.56346942 1880.12902481 -1611.44921875 1887.796875 C-1614.572976 1891.8578813 -1617.72575361 1895.89625317 -1620.875 1899.9375 C-1627.15950502 1908.00500692 -1633.37895988 1916.12067344 -1639.58251953 1924.25048828 C-1641.79868906 1927.15103085 -1644.02334468 1930.04500306 -1646.25 1932.9375 C-1647.45269531 1934.49984375 -1647.45269531 1934.49984375 -1648.6796875 1936.09375 C-1650.26822917 1938.15625 -1651.85677083 1940.21875 -1653.4453125 1942.28125 C-1659.77740182 1950.50685799 -1666.08614049 1958.7501477 -1672.38916016 1966.99804688 C-1675.11283264 1970.56178992 -1677.83773193 1974.12459459 -1680.5625 1977.6875 C-1681.10068359 1978.39132812 -1681.63886719 1979.09515625 -1682.19335938 1979.8203125 C-1684.86400579 1983.3129423 -1687.53506168 1986.80525733 -1690.20703125 1990.296875 C-1697.46793815 1999.78628807 -1704.71434275 2009.2866682 -1711.953125 2018.79296875 C-1714.6694553 2022.35992576 -1717.3883025 2025.92494067 -1720.109375 2029.48828125 C-1727.39825469 2039.03697014 -1734.64499053 2048.61499247 -1741.84228516 2058.23291016 C-1745.97202321 2063.74689348 -1750.14535114 2069.22287602 -1754.35546875 2074.67578125 C-1763.08466209 2085.9871793 -1771.74922034 2097.34459466 -1780.1875 2108.875 C-1785.27431156 2115.82582429 -1790.50246665 2122.64781362 -1795.81738281 2129.42529297 C-1800.55608851 2135.48793232 -1805.12924123 2141.66078137 -1809.671875 2147.87109375 C-1814.06481167 2153.86501178 -1818.54490806 2159.78709344 -1823.0625 2165.6875 C-1828.1291281 2172.30688274 -1833.13685459 2178.96253207 -1838.0625 2185.6875 C-1843.6491242 2193.31490017 -1849.35526338 2200.84394565 -1855.1015625 2208.3515625 C-1859.48314326 2214.08652727 -1863.79792958 2219.86509563 -1868.0625 2225.6875 C-1872.98815028 2232.41247458 -1877.99616232 2239.06788993 -1883.0625 2245.6875 C-1890.5178294 2255.43292339 -1897.81379406 2265.28783874 -1905.0625 2275.1875 C-1912.39024888 2285.19511133 -1919.7713115 2295.1517828 -1927.3125 2305 C-1932.07658732 2311.22217144 -1936.76293388 2317.47660816 -1941.27539062 2323.88330078 C-1944.85926816 2328.95256227 -1948.57867462 2333.91548119 -1952.3125 2338.875 C-1959.04401499 2347.81645848 -1965.70195702 2356.80925744 -1972.32861328 2365.82861328 C-1975.23621628 2369.78429621 -1978.14966394 2373.73566989 -1981.0625 2377.6875 C-1982.22919442 2379.27081288 -1983.3958611 2380.85414621 -1984.5625 2382.4375 C-1986.89583333 2385.60416667 -1989.22916667 2388.77083333 -1991.5625 2391.9375 C-1992.4289917 2393.11348755 -1992.4289917 2393.11348755 -1993.31298828 2394.31323242 C-1994.47793849 2395.89418983 -1995.64297734 2397.47508192 -1996.80810547 2399.0559082 C-1999.7517698 2403.05005828 -2002.69381346 2407.0453843 -2005.6328125 2411.04296875 C-2011.57780328 2419.12577724 -2017.5510991 2427.184196 -2023.59204102 2435.19555664 C-2027.3409751 2440.18438392 -2030.98954042 2445.24062448 -2034.625 2450.3125 C-2045.94709724 2466.04367515 -2057.78915727 2482.03059301 -2073.0625 2494.1875 C-2073.990625 2494.94160156 -2074.91875 2495.69570313 -2075.875 2496.47265625 C-2115.68866241 2528.30611584 -2166.45857488 2542.73991793 -2217.125 2537.5625 C-2255.37115135 2532.96887467 -2292.44880225 2516.44620175 -2320.76171875 2490.30078125 C-2322.84035234 2488.39154395 -2324.96670746 2486.56773356 -2327.125 2484.75 C-2360.01908399 2455.86098412 -2378.94884109 2409.87245827 -2382.88598633 2366.91113281 C-2383.91143075 2351.08836937 -2383.80496178 2334.83122627 -2381.0625 2319.1875 C-2380.8771167 2318.09429443 -2380.8771167 2318.09429443 -2380.68798828 2316.97900391 C-2373.95022675 2278.45534192 -2355.24426938 2247.93269309 -2330.87939453 2218.12866211 C-2327.53605582 2214.03181881 -2324.26847283 2209.89273709 -2321.0625 2205.6875 C-2316.80166153 2200.10076042 -2312.39791385 2194.64505753 -2307.95361328 2189.20361328 C-2302.56713711 2182.60078495 -2297.30553122 2175.90441408 -2292.0625 2169.1875 C-2285.75506755 2161.10696795 -2279.3800703 2153.0910386 -2272.89892578 2145.14892578 C-2268.95084926 2140.30297458 -2265.07465189 2135.40597906 -2261.22875977 2130.47875977 C-2257.70874854 2125.98086154 -2254.11393112 2121.54764298 -2250.5 2117.125 C-2246.61268227 2112.36576054 -2242.78910109 2107.57375653 -2239.0625 2102.6875 C-2234.80042101 2097.09913386 -2230.39610701 2091.64121487 -2225.94921875 2086.19921875 C-2222.43913802 2081.89813392 -2218.97832925 2077.56373814 -2215.5625 2073.1875 C-2211.0806114 2067.44730746 -2206.50293222 2061.79056483 -2201.8984375 2056.1484375 C-2198.40719917 2051.86298382 -2194.96431112 2047.54420547 -2191.5625 2043.1875 C-2187.0804989 2037.44739332 -2182.50293443 2031.79056754 -2177.8984375 2026.1484375 C-2174.40719917 2021.86298382 -2170.96431112 2017.54420547 -2167.5625 2013.1875 C-2163.0804989 2007.44739332 -2158.50293443 2001.79056754 -2153.8984375 1996.1484375 C-2150.40719821 1991.86298263 -2146.96435928 1987.54416894 -2143.5625 1983.1875 C-2138.47652155 1976.67520583 -2133.27153861 1970.2638363 -2128.05078125 1963.859375 C-2125.70528467 1960.98137546 -2123.37648453 1958.09094164 -2121.0625 1955.1875 C-2118.21027448 1951.60870755 -2115.32897524 1948.05487282 -2112.4375 1944.5078125 C-2107.76255625 1938.7723491 -2103.11719359 1933.01904637 -2098.5625 1927.1875 C-2091.96261529 1918.7412834 -2085.17435972 1910.44997762 -2078.39648438 1902.14648438 C-2072.74882443 1895.22461678 -2067.11911397 1888.29466829 -2061.625 1881.25 C-2056.86993461 1875.15403251 -2051.97220528 1869.1827461 -2047.04541016 1863.22509766 C-2043.37877232 1858.79057755 -2039.75154884 1854.32940655 -2036.171875 1849.82421875 C-2033.38724382 1846.34342977 -2030.56681373 1842.89225954 -2027.75 1839.4375 C-2023.58994529 1834.33374859 -2019.48282645 1829.19508157 -2015.4375 1824 C-2011.40282895 1818.82366213 -2007.23227965 1813.78491148 -2002.97167969 1808.79345703 C-1999.65792041 1804.90766568 -1996.44289624 1800.95766858 -1993.26953125 1796.95703125 C-1990.49376705 1793.47381565 -1987.68560099 1790.01762797 -1984.875 1786.5625 C-1984.32247559 1785.88316406 -1983.76995117 1785.20382812 -1983.20068359 1784.50390625 C-1982.0624242 1783.1045842 -1980.92407677 1781.70533377 -1979.78564453 1780.30615234 C-1978.07350811 1778.20103476 -1976.36268031 1776.09486134 -1974.65234375 1773.98828125 C-1967.77719462 1765.52048749 -1960.8827532 1757.06892834 -1953.96875 1748.6328125 C-1949.48749692 1743.16113755 -1945.02069126 1737.67796565 -1940.5625 1732.1875 C-1935.41026202 1725.84228419 -1930.24253753 1719.51005048 -1925.0625 1713.1875 C-1924.38316406 1712.35605469 -1923.70382812 1711.52460938 -1923.00390625 1710.66796875 C-1917.7612938 1704.25178067 -1912.49602943 1697.8545022 -1907.22705078 1691.45996094 C-1902.49263437 1685.7129518 -1897.77270983 1679.95437287 -1893.0625 1674.1875 C-1890.06559883 1670.5182902 -1887.06610389 1666.85122471 -1884.0625 1663.1875 C-1883.53994629 1662.55005859 -1883.01739258 1661.91261719 -1882.47900391 1661.25585938 C-1875.98401751 1653.33794965 -1869.46264489 1645.44749197 -1862.82470703 1637.64892578 C-1859.51956789 1633.75555276 -1856.32720718 1629.78393365 -1853.15625 1625.78125 C-1850.21166916 1622.13348567 -1847.16798467 1618.5729602 -1844.12890625 1615.00390625 C-1841.38475467 1611.77325688 -1838.69502191 1608.51051946 -1836.0625 1605.1875 C-1832.53366597 1600.73496299 -1828.88020671 1596.40064021 -1825.19921875 1592.07421875 C-1822.28245487 1588.64178391 -1819.40556574 1585.18157185 -1816.5625 1581.6875 C-1813.25625926 1577.6241952 -1809.89433571 1573.61450691 -1806.5 1569.625 C-1803.29510809 1565.85661061 -1800.13562306 1562.06503972 -1797.0625 1558.1875 C-1793.53302982 1553.73416032 -1789.87916836 1549.39881161 -1786.19702148 1545.07202148 C-1783.29946577 1541.6628091 -1780.44505209 1538.22397722 -1777.625 1534.75 C-1773.66806582 1529.88700576 -1769.59814058 1525.13049797 -1765.50634766 1520.38134766 C-1761.70848499 1515.96441282 -1758.00569959 1511.47796003 -1754.33203125 1506.95703125 C-1749.51561061 1501.07950589 -1744.567557 1495.31138086 -1739.64648438 1489.52148438 C-1734.9273039 1483.96681966 -1730.22174951 1478.40690075 -1725.625 1472.75 C-1721.66677044 1467.88541376 -1717.59600939 1463.12687822 -1713.50195312 1458.37695312 C-1710.49018013 1454.87533649 -1707.53198309 1451.33972407 -1704.625 1447.75 C-1700.48189009 1442.64442535 -1696.1801955 1437.68949947 -1691.85961914 1432.73461914 C-1688.69784162 1429.10012149 -1685.59399794 1425.43229157 -1682.5625 1421.6875 C-1678.48428284 1416.65321728 -1674.25632942 1411.76239292 -1670.00219727 1406.87719727 C-1666.47016123 1402.81892743 -1662.96789395 1398.73820077 -1659.5 1394.625 C-1655.72676981 1390.15066516 -1651.93598076 1385.69223995 -1648.125 1381.25 C-1647.62822754 1380.67072754 -1647.13145508 1380.09145508 -1646.61962891 1379.49462891 C-1644.06726011 1376.51975354 -1641.5117253 1373.54764229 -1638.953125 1370.578125 C-1634.3641409 1365.24629366 -1629.80372166 1359.90420329 -1625.375 1354.4375 C-1621.82387934 1350.06098373 -1618.10452602 1345.8791854 -1614.30859375 1341.71484375 C-1612.00062402 1339.11787607 -1609.80694137 1336.45345987 -1607.625 1333.75 C-1603.76541397 1328.97753797 -1599.69050009 1324.45640891 -1595.53515625 1319.94140625 C-1592.31540481 1316.35542716 -1589.30344824 1312.62048508 -1586.27734375 1308.87109375 C-1583.39651493 1305.38056571 -1580.35315597 1302.05475932 -1577.3046875 1298.7109375 C-1575.01734096 1296.13667642 -1572.84701729 1293.49460511 -1570.6875 1290.8125 C-1567.00613311 1286.25889288 -1563.13475527 1281.95167484 -1559.14892578 1277.66845703 C-1556.15837359 1274.43573796 -1553.32478315 1271.12062334 -1550.5625 1267.6875 C-1546.92750611 1263.16972187 -1543.0953971 1258.90931484 -1539.1484375 1254.66796875 C-1536.15808642 1251.43538253 -1533.32463671 1248.12044134 -1530.5625 1244.6875 C-1526.9268595 1240.16891824 -1523.09413598 1235.90766671 -1519.14624023 1231.66577148 C-1516.17534372 1228.4545095 -1513.36288923 1225.16122185 -1510.625 1221.75 C-1506.78075361 1216.97048078 -1502.69160955 1212.49429656 -1498.50195312 1208.02148438 C-1495.40484535 1204.69612723 -1492.46635624 1201.30039193 -1489.625 1197.75 C-1485.03937705 1192.03676485 -1480.06504458 1186.73548063 -1475.05859375 1181.39453125 C-1470.69259707 1176.73558681 -1466.53074167 1171.91679197 -1462.3984375 1167.05078125 C-1456.79674196 1160.46629976 -1451.1101387 1153.99519998 -1445.21875 1147.66796875 C-1442.00280561 1144.21380626 -1438.85732045 1140.71314408 -1435.76953125 1137.14453125 C-1433.72616569 1134.8019085 -1431.64569141 1132.49476578 -1429.5625 1130.1875 C-1426.87266569 1127.20687279 -1424.19939636 1124.21504767 -1421.5625 1121.1875 C-1418.16875985 1117.29098353 -1414.70819997 1113.45685055 -1411.24609375 1109.62109375 C-1409.35401315 1107.51238854 -1407.48344242 1105.38830199 -1405.625 1103.25 C-1401.97071138 1099.05307919 -1398.21505027 1094.9509724 -1394.46484375 1090.83984375 C-1392.49308156 1088.66289004 -1390.54884663 1086.46911326 -1388.625 1084.25 C-1385.19481424 1080.30082633 -1381.65246482 1076.45727695 -1378.10961914 1072.60961914 C-1375.55709547 1069.8327363 -1373.03274254 1067.03777985 -1370.5625 1064.1875 C-1367.15505081 1060.25582786 -1363.63120327 1056.43388756 -1360.10717773 1052.60717773 C-1357.57509884 1049.85276572 -1355.07214732 1047.08007501 -1352.625 1044.25 C-1349.04312691 1040.118391 -1345.32412042 1036.11820073 -1341.60791016 1032.10791016 C-1337.81362961 1028.01056071 -1334.06703553 1023.87339227 -1330.33984375 1019.71484375 C-1327.76440225 1016.85667797 -1325.16564236 1014.02039739 -1322.5625 1011.1875 C-1319.20956883 1007.53822829 -1315.87251643 1003.87580402 -1312.5625 1000.1875 C-1307.90255144 994.99688114 -1303.18891725 989.85637157 -1298.46972656 984.71972656 C-1296.16541446 982.21072886 -1293.86410772 979.69897828 -1291.5625 977.1875 C-1290.64453861 976.18619117 -1289.72656986 975.18488909 -1288.80859375 974.18359375 C-1286.98766169 972.19718118 -1285.16740144 970.21015613 -1283.34765625 968.22265625 C-1277.10801623 961.40915316 -1270.84842351 954.61435775 -1264.57861328 947.82861328 C-1262.57203341 945.65659558 -1260.56636308 943.48373927 -1258.56079102 941.31079102 C-1257.56005842 940.22656892 -1256.55924431 939.14242206 -1255.55834961 938.05834961 C-1253.08188674 935.37601745 -1250.60634728 932.69284524 -1248.1328125 930.0078125 C-1241.06764254 922.34115152 -1233.96373258 914.71140203 -1226.84472656 907.09472656 C-1223.91581344 903.9603883 -1220.98927864 900.82383124 -1218.0625 897.6875 C-1216.89453704 896.43619251 -1215.72656829 895.18489043 -1214.55859375 893.93359375 C-1212.23779393 891.44706875 -1209.91752352 888.96005131 -1207.59765625 886.47265625 C-1204.69656401 883.36227413 -1201.79406515 880.25321003 -1198.890625 877.14501953 C-1197.62721864 875.79218937 -1196.36422403 874.43897459 -1195.1015625 873.08544922 C-1193.11059957 870.95165213 -1191.11796153 868.81943034 -1189.125 866.6875 C-1188.52244385 866.04111572 -1187.9198877 865.39473145 -1187.29907227 864.72875977 C-1184.35779018 861.58555714 -1181.38303223 858.49021827 -1178.328125 855.45703125 C-1176.02833661 853.17296626 -1173.83253731 850.86169549 -1171.75 848.375 C-1168.98631971 845.16416245 -1166.07630404 842.16482835 -1163.0625 839.1875 C-1160.15196199 836.31192341 -1157.33825978 833.42875906 -1154.6875 830.3125 C-1151.64819189 826.75463695 -1148.38885003 823.47309218 -1145.0625 820.1875 C-1141.84039097 817.00463114 -1138.67197446 813.84059761 -1135.75 810.375 C-1131.67591583 805.5766342 -1127.14601998 801.22075823 -1122.6550293 796.81713867 C-1119.51831269 793.72292611 -1116.49929231 790.59074889 -1113.625 787.25 C-1109.15567357 782.06678791 -1104.25863896 777.33540749 -1099.37890625 772.54296875 C-1096.05590352 769.2560203 -1092.81598693 765.96269715 -1089.78125 762.40625 C-1084.37883844 756.12710422 -1078.35081843 750.4209405 -1072.45996094 744.60546875 C-1070.88781785 743.05164002 -1069.31886916 741.49463323 -1067.75 739.9375 C-1066.82574219 739.02484375 -1065.90148438 738.1121875 -1064.94921875 737.171875 C-1062.78139509 734.98041668 -1060.75195034 732.70053614 -1058.74023438 730.36523438 C-1054.86994799 725.9005336 -1050.7308411 721.74695171 -1046.53125 717.59375 C-1045.33912903 716.40730896 -1045.33912903 716.40730896 -1044.1229248 715.19689941 C-1040.75714452 711.84731427 -1037.38538952 708.5037673 -1034.01416016 705.15966797 C-1031.53859773 702.70229061 -1029.06611917 700.24183942 -1026.59375 697.78125 C-1025.84250854 697.03830688 -1025.09126709 696.29536377 -1024.31726074 695.52990723 C-1023.59961548 694.81556519 -1022.88197021 694.10122314 -1022.14257812 693.36523438 C-1021.52193481 692.74982788 -1020.9012915 692.13442139 -1020.26184082 691.50036621 C-1018.4297727 689.57373055 -1016.6992038 687.61217362 -1014.96885681 685.59584045 C-1010.3778531 680.32110596 -1005.42845062 675.41326167 -1000.48071289 670.47631836 C-999.42842841 669.42267602 -998.37635616 668.36882168 -997.32447815 667.31477356 C-994.48792754 664.47369441 -991.64825942 661.6357511 -988.80785298 658.79852748 C-985.82323212 655.816454 -982.84106964 652.8319236 -979.85850525 649.84779358 C-974.85123251 644.83870606 -969.84186546 639.83172024 -964.83129883 634.82592773 C-959.05418543 629.05425562 -953.28068307 623.27899011 -947.5090428 617.5018453 C-942.5365679 612.52481954 -937.5621308 607.54976127 -932.58607477 602.57631594 C-929.62153076 599.61332386 -926.65764961 596.6496772 -923.69554329 593.68424797 C-920.90951536 590.89531258 -918.12101657 588.10887063 -915.33066368 585.32426262 C-914.31240291 584.30731411 -913.29497351 583.28953231 -912.27848053 582.2708168 C-907.24297589 577.22532578 -902.18435253 572.27728748 -896.75427151 567.65553379 C-893.91532642 565.19204076 -891.29179087 562.52101233 -888.65625 559.84375 C-888.08724976 559.27096313 -887.51824951 558.69817627 -886.93200684 558.10803223 C-885.13967018 556.30364749 -883.35065684 554.4960264 -881.5625 552.6875 C-867.96151365 538.93157971 -867.96151365 538.93157971 -861.74414062 533.64648438 C-859.04061659 531.30091822 -856.55941822 528.74889861 -854.0625 526.1875 C-850.19266603 522.26430574 -846.25431189 518.5332321 -842.0546875 514.9609375 C-838.72203149 511.99422019 -835.64248349 508.77457809 -832.5078125 505.6015625 C-829.77126521 502.89998706 -826.91270634 500.39671265 -823.9921875 497.8984375 C-821.30333452 495.51439376 -818.80772455 492.95933972 -816.3125 490.375 C-814.36432685 488.48094277 -812.37535673 486.69799805 -810.32421875 484.91796875 C-806.06799682 481.22071423 -801.96423672 477.38009292 -797.875 473.5 C-790.65272659 466.67532635 -783.38377202 459.90573289 -776.0625 453.1875 C-775.30743164 452.49430664 -775.30743164 452.49430664 -774.53710938 451.78710938 C-772.03789418 449.49322123 -769.53725861 447.20089474 -767.03515625 444.91015625 C-765.02045855 443.06562107 -763.00756593 441.21914578 -760.99609375 439.37109375 C-754.71862526 433.60533739 -748.40715058 427.8793248 -742.0625 422.1875 C-740.39557353 420.68778872 -738.72890851 419.18778679 -737.0625 417.6875 C-736.24007812 416.94757812 -735.41765625 416.20765625 -734.5703125 415.4453125 C-732.87657106 413.92041756 -731.18388831 412.39434598 -729.4921875 410.8671875 C-723.35031288 405.32635259 -717.17548251 399.83285063 -710.875 394.47265625 C-705.11984968 389.57175473 -699.41346144 384.64564986 -693.875 379.5 C-689.32796013 375.27673155 -684.61114313 371.32421276 -679.77734375 367.43359375 C-676.95576505 365.0991941 -674.25659288 362.66759402 -671.5625 360.1875 C-667.19480508 356.17144153 -662.69400764 352.39364546 -658.078125 348.66796875 C-654.51579519 345.73781405 -651.03784874 342.71980943 -647.5625 339.6875 C-642.37986044 335.169418 -637.13775163 330.74822805 -631.79296875 326.421875 C-628.74283192 323.92591181 -625.74671595 321.3720269 -622.75 318.8125 C-617.70033247 314.50803779 -612.53253269 310.38401954 -607.29370117 306.31298828 C-603.30037741 303.19643667 -599.40978629 299.98216651 -595.5625 296.6875 C-590.64184433 292.47703437 -585.61661488 288.4325493 -580.50610352 284.45532227 C-575.95313059 280.90617415 -571.46924327 277.27883984 -567 273.625 C-561.24221531 268.92567698 -555.42176197 264.33516903 -549.51171875 259.828125 C-546.24185886 257.33333591 -543.00181221 254.80139813 -539.76196289 252.26782227 C-531.82465102 246.06446822 -523.81621751 239.96629659 -515.74267578 233.94140625 C-510.48259901 230.01334121 -505.25526935 226.04594885 -500.04711914 222.04931641 C-490.87890481 215.01797871 -481.5973707 208.20738633 -472.10986328 201.61425781 C-469.34797241 199.68956305 -466.60015668 197.74528648 -463.85253906 195.80029297 C-461.71998206 194.29125879 -459.58489523 192.78586542 -457.44921875 191.28125 C-454.53070649 189.22495151 -451.61747845 187.16144362 -448.70703125 185.09375 C-434.67332872 175.16021955 -420.35906302 165.65320636 -406.0320282 156.15058899 C-402.05394126 153.51195572 -398.08135838 150.8653018 -394.11282349 148.21232605 C-353.20778789 120.87865396 -310.5928173 96.13571361 -266.85791016 73.62695312 C-265.05638967 72.69928808 -263.25645569 71.76853229 -261.45849609 70.83398438 C-215.53120699 47.0008726 -166.20773053 27.97515696 -116.0625 15.1875 C-114.5787085 14.80585693 -114.5787085 14.80585693 -113.06494141 14.41650391 C-87.68937968 7.98412246 -61.20386403 3.03145334 -35.0625 1.1875 C-33.94109619 1.10282471 -32.81969238 1.01814941 -31.66430664 0.9309082 C-21.10419094 0.19214008 -10.58412562 -0.01393854 0 0 Z " fill="#FFFFFF" transform="translate(3548.0625,2705.8125)"/>
<path d="M0 0 C0.9796875 0.17160645 1.959375 0.34321289 2.96875 0.52001953 C72.94368098 13.13309101 140.05267922 48.98763721 186 104 C186.44682129 104.52770996 186.89364258 105.05541992 187.35400391 105.59912109 C226.25151699 151.66958224 251.31686249 208.16387902 259 268 C259.10296387 268.74266113 259.20592773 269.48532227 259.31201172 270.25048828 C265.40300599 315.27380925 259.76152288 361.94685176 246 405 C245.73493652 405.84691406 245.46987305 406.69382813 245.19677734 407.56640625 C227.87591579 462.38503265 191.02829586 516.24969394 145 551 C144.00355469 551.79019531 143.00710938 552.58039063 141.98046875 553.39453125 C87.87933177 596.18428883 19.83878215 619.19593189 -49 619.25 C-49.78179626 619.25067474 -50.56359253 619.25134949 -51.36907959 619.25204468 C-119.04289501 619.16026671 -186.77658193 597.18637723 -240 555 C-240.93972656 554.27167969 -241.87945312 553.54335938 -242.84765625 552.79296875 C-247.96879689 548.77995746 -252.83240319 544.53043053 -257.63671875 540.14453125 C-259.7074303 538.26548887 -261.81078337 536.43985594 -263.9375 534.625 C-271.87240688 527.70203468 -279.26859549 520.09355513 -286 512 C-286.67603271 511.1946582 -286.67603271 511.1946582 -287.36572266 510.37304688 C-299.08769765 496.371071 -309.80017044 481.79818488 -318.88476562 465.94091797 C-320.03889217 463.93231333 -321.21488352 461.93742148 -322.390625 459.94140625 C-346.31140124 418.75318935 -360.97221111 369.12105406 -361.203125 321.33984375 C-361.21018463 320.36022675 -361.21724426 319.38060974 -361.22451782 318.37130737 C-361.45325386 277.30161028 -361.45325386 277.30161028 -358 258 C-357.80132324 256.86224121 -357.60264648 255.72448242 -357.39794922 254.55224609 C-347.94052905 201.8244721 -326.11113027 152.42350458 -292 111 C-291.49210937 110.37641602 -290.98421875 109.75283203 -290.4609375 109.11035156 C-283.55119367 100.67666554 -276.05347295 92.86036558 -268.375 85.125 C-267.51640381 84.25705811 -266.65780762 83.38911621 -265.77319336 82.49487305 C-259.82372109 76.57487886 -253.57201674 71.21436513 -247 66 C-246.2579834 65.39865234 -245.5159668 64.79730469 -244.75146484 64.17773438 C-202.94643421 30.31283424 -152.88484914 9.05941199 -100 0 C-99.09491699 -0.16516113 -98.18983398 -0.33032227 -97.25732422 -0.50048828 C-66.27312353 -5.98496971 -30.93658456 -5.55147044 0 0 Z " fill="#ED0000" transform="translate(6241,4126)"/>
<path d="M0 0 C6.84550062 3.8407499 16.46337771 9.4103432 19.20703125 17.23828125 C19.5744704 20.94790659 19.5090739 24.52651263 19.20703125 28.23828125 C19.76132812 27.91859375 20.315625 27.59890625 20.88671875 27.26953125 C25.86237956 25.05812645 31.54728121 25.26131805 36.62109375 27.125 C42.23390778 30.25053022 47.11957063 34.48896942 52.01953125 38.61328125 C52.65407227 39.14203857 53.28861328 39.6707959 53.94238281 40.21557617 C58.99847863 44.61994097 63.21017972 49.4364592 64.94140625 56.0390625 C65.0209378 68.82375963 55.42641103 77.59785681 47.52197266 86.70556641 C41.83313189 93.33656201 36.54877378 100.32740186 31.20703125 107.23828125 C26.90392312 106.74057236 24.25578198 103.99171052 21.14453125 101.23828125 C19.97199961 100.22321229 18.79881351 99.20889885 17.625 98.1953125 C17.04411621 97.69080566 16.46323242 97.18629883 15.86474609 96.66650391 C13.59546766 94.71138184 11.28092646 92.81550309 8.95703125 90.92578125 C4.31980236 87.14879193 -0.30241014 83.35418908 -4.91796875 79.55078125 C-5.64209961 78.95418701 -6.36623047 78.35759277 -7.11230469 77.74291992 C-8.59867623 76.51828186 -10.08500398 75.29359064 -11.57128906 74.06884766 C-14.44162323 71.70381847 -17.31255346 69.3395137 -20.18359375 66.9753418 C-21.58733351 65.8193686 -22.99097969 64.66328177 -24.39453125 63.50708008 C-28.05941268 60.48821884 -31.72581307 57.47122906 -35.39453125 54.45703125 C-36.15185547 53.83441406 -36.90917969 53.21179687 -37.68945312 52.5703125 C-39.12516525 51.39003382 -40.5613284 50.21030347 -41.99804688 49.03125 C-46.30939844 45.48570279 -50.5656393 41.88366665 -54.79296875 38.23828125 C-49.48636398 30.92377197 -43.67532174 24.08946606 -37.79296875 17.23828125 C-37.12652344 16.45710938 -36.46007813 15.6759375 -35.7734375 14.87109375 C-34.13608029 12.97131586 -32.47612375 11.09753276 -30.79296875 9.23828125 C-29.95185547 8.29855469 -29.95185547 8.29855469 -29.09375 7.33984375 C-21.07107624 -1.20565594 -11.38930562 -4.89438592 0 0 Z M-17.79296875 24.23828125 C-19.27796875 26.21828125 -19.27796875 26.21828125 -20.79296875 28.23828125 C-18.5472816 30.20175638 -16.29673754 32.15912061 -14.04296875 34.11328125 C-13.40875 34.66886719 -12.77453125 35.22445312 -12.12109375 35.796875 C-11.50234375 36.33183594 -10.88359375 36.86679688 -10.24609375 37.41796875 C-9.68051758 37.91022949 -9.11494141 38.40249023 -8.53222656 38.90966797 C-6.70686351 40.30405676 -4.87440265 41.27731272 -2.79296875 42.23828125 C-1.14460545 40.48583878 -1.14460545 40.48583878 0.20703125 38.23828125 C-0.0615605 34.14009094 -2.50311259 32.21466037 -5.41796875 29.55078125 C-9.62055326 25.86748161 -12.20433995 24.11678932 -17.79296875 24.23828125 Z M12.39453125 52.23828125 C12.00265625 52.89828125 11.61078125 53.55828125 11.20703125 54.23828125 C21.71774298 65.51171995 21.71774298 65.51171995 34.20703125 72.23828125 C35.89613872 69.46544439 35.89613872 69.46544439 35.953125 66.3046875 C33.63526528 59.88506557 24.92758202 53.56347772 19.20703125 50.23828125 C15.77150179 49.65185402 14.77366835 49.61302652 12.39453125 52.23828125 Z " fill="#000000" transform="translate(6421.79296875,3813.76171875)"/>
<path d="M0 0 C2.61627462 1.79973031 5.1017748 3.69965591 7.578125 5.6875 C8.80595703 6.66396484 8.80595703 6.66396484 10.05859375 7.66015625 C12.36474851 9.52671116 14.65103447 11.41487351 16.92919922 13.31542969 C19.4606744 15.42186891 22.00576407 17.51168869 24.54931641 19.60351562 C26.72533073 21.39326397 28.89995523 23.18468775 31.07421875 24.9765625 C34.12813632 27.49312408 37.18285409 30.00870897 40.23828125 32.5234375 C40.9967334 33.14774658 41.75518555 33.77205566 42.53662109 34.4152832 C43.98085452 35.60404708 45.42518436 36.79269383 46.86962891 37.98120117 C50.78363553 41.20340545 54.68693104 44.43777814 58.578125 47.6875 C57.98846656 50.83006281 57.07365151 52.6147466 54.9609375 55 C54.43628906 55.60070313 53.91164062 56.20140625 53.37109375 56.8203125 C52.82066406 57.43648437 52.27023437 58.05265625 51.703125 58.6875 C50.62134616 59.91574296 49.5405875 61.14488533 48.4609375 62.375 C47.95723633 62.94734375 47.45353516 63.5196875 46.93457031 64.109375 C45.39078706 65.905454 43.95554623 67.76103674 42.578125 69.6875 C39.3871237 69.09025377 37.53753453 68.10549542 35.06640625 66.01953125 C34.06661743 65.1850647 34.06661743 65.1850647 33.04663086 64.33374023 C32.33514893 63.72860596 31.62366699 63.12347168 30.890625 62.5 C29.35690664 61.2159836 27.82304858 59.93213404 26.2890625 58.6484375 C25.5062793 57.9894043 24.72349609 57.33037109 23.91699219 56.65136719 C19.60770465 53.03300508 15.25684112 49.46511813 10.90795898 45.89453125 C7.32548483 42.952511 3.7531215 39.99993996 0.19921875 37.0234375 C-1.21601225 35.84879737 -2.6313721 34.67431247 -4.046875 33.5 C-4.68568604 32.95915771 -5.32449707 32.41831543 -5.98266602 31.86108398 C-9.94465386 28.59222219 -13.60500013 26.48918456 -18.421875 24.6875 C-18.24314246 28.85998044 -17.6675472 30.42743997 -14.75390625 33.51171875 C-13.59394336 34.48216279 -12.41976155 35.43577998 -11.234375 36.375 C-10.60724609 36.89191406 -9.98011719 37.40882813 -9.33398438 37.94140625 C-4.5161003 41.88812448 0.39735765 45.72026338 5.31835938 49.53735352 C10.17809114 53.32129271 14.86113991 57.2868431 19.50830078 61.32788086 C22.26530477 63.72170787 25.03641519 66.07690997 27.90234375 68.33984375 C29.41248047 69.53287109 29.41248047 69.53287109 30.953125 70.75 C31.84773438 71.44222656 32.74234375 72.13445313 33.6640625 72.84765625 C34.29570312 73.45480469 34.92734375 74.06195312 35.578125 74.6875 C35.578125 78.51049402 34.49808709 79.35069926 32.078125 82.25 C31.35625 83.12527344 30.634375 84.00054688 29.890625 84.90234375 C29.1275 85.82144531 28.364375 86.74054687 27.578125 87.6875 C26.07441079 89.55952259 24.5742121 91.43437637 23.078125 93.3125 C21.91145833 94.77083333 20.74479167 96.22916667 19.578125 97.6875 C16.75328644 96.37520697 14.45464812 94.91642161 12.06640625 92.921875 C11.39996094 92.36886719 10.73351563 91.81585937 10.046875 91.24609375 C8.97953125 90.35083984 8.97953125 90.35083984 7.890625 89.4375 C6.35555358 88.16135629 4.82039492 86.88531751 3.28515625 85.609375 C2.11073975 84.63000977 2.11073975 84.63000977 0.91259766 83.63085938 C-2.68654302 80.63471215 -6.30451294 77.66159761 -9.921875 74.6875 C-11.33864518 73.52095904 -12.75531154 72.35429198 -14.171875 71.1875 C-14.873125 70.61 -15.574375 70.0325 -16.296875 69.4375 C-18.421875 67.6875 -20.546875 65.9375 -22.671875 64.1875 C-23.37344727 63.6097583 -24.07501953 63.0320166 -24.79785156 62.43676758 C-26.21135703 61.27265646 -27.62476884 60.1084316 -29.03808594 58.9440918 C-32.62735071 55.98737496 -36.21833322 53.03278796 -39.8125 50.08203125 C-48.40935895 43.02029148 -56.95405409 35.90355608 -65.421875 28.6875 C-63.19330791 23.86276712 -59.88379872 20.03559573 -56.546875 15.9375 C-55.92167969 15.14472656 -55.29648437 14.35195312 -54.65234375 13.53515625 C-53.73775391 12.41173828 -53.73775391 12.41173828 -52.8046875 11.265625 C-52.25184082 10.57887695 -51.69899414 9.89212891 -51.12939453 9.18457031 C-49.421875 7.6875 -49.421875 7.6875 -45.421875 7.6875 C-43.08644868 9.43762812 -40.95603389 11.18031113 -38.796875 13.125 C-34.87557907 16.78494545 -34.87557907 16.78494545 -30.421875 19.6875 C-30.28652344 19.0584375 -30.15117187 18.429375 -30.01171875 17.78125 C-28.00258714 9.79284649 -24.42736355 4.57517779 -17.734375 -0.25 C-11.78862794 -2.98182973 -5.84066089 -3.16526139 0 0 Z " fill="#000000" transform="translate(6629.421875,3585.3125)"/>
<path d="M0 0 C8.26506467 5.99432424 16.13238603 12.49764845 24 19 C25.70764029 20.3966811 27.41599019 21.792495 29.125 23.1875 C30.01316406 23.91582031 30.90132812 24.64414063 31.81640625 25.39453125 C34.33869896 27.46229703 36.87014797 29.51859548 39.40234375 31.57421875 C40.95583831 32.841012 42.50922368 34.10793917 44.0625 35.375 C44.81354004 35.98239014 45.56458008 36.58978027 46.33837891 37.21557617 C47.04269043 37.79154541 47.74700195 38.36751465 48.47265625 38.9609375 C49.10437744 39.47446777 49.73609863 39.98799805 50.38696289 40.51708984 C52 42 52 42 54 45 C52.78763672 46.41152344 52.78763672 46.41152344 51.55078125 47.8515625 C50.47133178 49.10935579 49.39190596 50.36716937 48.3125 51.625 C47.78205078 52.24246094 47.25160156 52.85992188 46.70507812 53.49609375 C43.43774572 57.30464073 40.20310202 61.13726102 37 65 C35.02 64.01 35.02 64.01 33 63 C32.92523438 63.78503906 32.85046875 64.57007812 32.7734375 65.37890625 C31.88004323 72.51730167 30.76247871 77.42316403 25 82 C20.75178326 84.94039795 16.41199496 86.83603275 11.1171875 86.49609375 C3.77473365 84.77562947 -1.97992986 79.36507207 -7.4375 74.4375 C-7.94571289 73.97883545 -8.45392578 73.5201709 -8.97753906 73.04760742 C-12.48458162 69.76225418 -15.71217994 66.64434685 -16.25 61.703125 C-15.55500787 54.88351475 -13.87117396 48.59249179 -11.72851562 42.10253906 C-10.29175208 37.62679023 -9.46417806 33.75833179 -10 29 C-11.33620548 26.99708354 -11.33620548 26.99708354 -13.3125 25.6875 C-13.92738281 25.21699219 -14.54226563 24.74648437 -15.17578125 24.26171875 C-18.35576463 21.67742105 -18.35576463 21.67742105 -22.1875 21.375 C-22.785625 21.58125 -23.38375 21.7875 -24 22 C-23.75722624 25.35184423 -22.78030433 26.20803321 -20.27734375 28.578125 C-19.17185454 29.47840364 -18.05823943 30.3687786 -16.9375 31.25 C-16.36966797 31.70890625 -15.80183594 32.1678125 -15.21679688 32.640625 C-13.8180802 33.76900148 -12.40992986 34.8856663 -11 36 C-12.38836644 40.16509933 -14.31755366 42.75127978 -17.3125 45.9375 C-20.65785657 49.54724766 -23.88958181 53.18722932 -27 57 C-34.51679707 53.59395133 -41.87601246 46.70496085 -45 39 C-46.47021393 27.2382886 -44.0669037 18.66255846 -36.87890625 9.2109375 C-27.17172081 -2.19542598 -13.82593421 -9.33730627 0 0 Z M4 40 C3.45952079 43.70614317 3.27331492 45.8537408 5.3125 49.0703125 C9.05045593 53.45907326 13.02133434 57.08795028 18 60 C20.15156678 59.9219633 20.15156678 59.9219633 22 59 C22.33 58.01 22.66 57.02 23 56 C19.26356655 52.15821599 15.34909673 48.63718927 11.25 45.1875 C10.66089844 44.68541016 10.07179687 44.18332031 9.46484375 43.66601562 C7.03023965 41.14410442 7.03023965 41.14410442 4 40 Z " fill="#000000" transform="translate(6537,3709)"/>
<path d="M0 0 C8.26506467 5.99432424 16.13238603 12.49764845 24 19 C25.70764029 20.3966811 27.41599019 21.792495 29.125 23.1875 C30.01316406 23.91582031 30.90132812 24.64414063 31.81640625 25.39453125 C34.33869896 27.46229703 36.87014797 29.51859548 39.40234375 31.57421875 C40.95583831 32.841012 42.50922368 34.10793917 44.0625 35.375 C44.81354004 35.98239014 45.56458008 36.58978027 46.33837891 37.21557617 C47.04269043 37.79154541 47.74700195 38.36751465 48.47265625 38.9609375 C49.10437744 39.47446777 49.73609863 39.98799805 50.38696289 40.51708984 C52 42 52 42 54 45 C52.78763672 46.41152344 52.78763672 46.41152344 51.55078125 47.8515625 C50.47133178 49.10935579 49.39190596 50.36716937 48.3125 51.625 C47.78205078 52.24246094 47.25160156 52.85992188 46.70507812 53.49609375 C43.43774572 57.30464073 40.20310202 61.13726102 37 65 C35.02 64.01 35.02 64.01 33 63 C32.92523438 63.78503906 32.85046875 64.57007812 32.7734375 65.37890625 C31.88004323 72.51730167 30.76247871 77.42316403 25 82 C20.75178326 84.94039795 16.41199496 86.83603275 11.1171875 86.49609375 C3.77473365 84.77562947 -1.97992986 79.36507207 -7.4375 74.4375 C-7.94571289 73.97883545 -8.45392578 73.5201709 -8.97753906 73.04760742 C-12.48458162 69.76225418 -15.71217994 66.64434685 -16.25 61.703125 C-15.55500787 54.88351475 -13.87117396 48.59249179 -11.72851562 42.10253906 C-10.29175208 37.62679023 -9.46417806 33.75833179 -10 29 C-11.33620548 26.99708354 -11.33620548 26.99708354 -13.3125 25.6875 C-13.92738281 25.21699219 -14.54226563 24.74648437 -15.17578125 24.26171875 C-18.35576463 21.67742105 -18.35576463 21.67742105 -22.1875 21.375 C-22.785625 21.58125 -23.38375 21.7875 -24 22 C-23.75722624 25.35184423 -22.78030433 26.20803321 -20.27734375 28.578125 C-19.17185454 29.47840364 -18.05823943 30.3687786 -16.9375 31.25 C-16.36966797 31.70890625 -15.80183594 32.1678125 -15.21679688 32.640625 C-13.8180802 33.76900148 -12.40992986 34.8856663 -11 36 C-12.38836644 40.16509933 -14.31755366 42.75127978 -17.3125 45.9375 C-20.65785657 49.54724766 -23.88958181 53.18722932 -27 57 C-34.51679707 53.59395133 -41.87601246 46.70496085 -45 39 C-46.47021393 27.2382886 -44.0669037 18.66255846 -36.87890625 9.2109375 C-27.17172081 -2.19542598 -13.82593421 -9.33730627 0 0 Z M4 40 C3.45952079 43.70614317 3.27331492 45.8537408 5.3125 49.0703125 C9.05045593 53.45907326 13.02133434 57.08795028 18 60 C20.15156678 59.9219633 20.15156678 59.9219633 22 59 C22.33 58.01 22.66 57.02 23 56 C19.26356655 52.15821599 15.34909673 48.63718927 11.25 45.1875 C10.66089844 44.68541016 10.07179687 44.18332031 9.46484375 43.66601562 C7.03023965 41.14410442 7.03023965 41.14410442 4 40 Z " fill="#000000" transform="translate(6731,3473)"/>
<path d="M0 0 C8.26506467 5.99432424 16.13238603 12.49764845 24 19 C25.70764029 20.3966811 27.41599019 21.792495 29.125 23.1875 C30.01316406 23.91582031 30.90132812 24.64414063 31.81640625 25.39453125 C34.33869896 27.46229703 36.87014797 29.51859548 39.40234375 31.57421875 C40.95583831 32.841012 42.50922368 34.10793917 44.0625 35.375 C44.81354004 35.98239014 45.56458008 36.58978027 46.33837891 37.21557617 C47.04269043 37.79154541 47.74700195 38.36751465 48.47265625 38.9609375 C49.10437744 39.47446777 49.73609863 39.98799805 50.38696289 40.51708984 C52 42 52 42 54 45 C52.78763672 46.41152344 52.78763672 46.41152344 51.55078125 47.8515625 C50.47133178 49.10935579 49.39190596 50.36716937 48.3125 51.625 C47.78205078 52.24246094 47.25160156 52.85992188 46.70507812 53.49609375 C43.43774572 57.30464073 40.20310202 61.13726102 37 65 C35.02 64.01 35.02 64.01 33 63 C32.92523438 63.78503906 32.85046875 64.57007812 32.7734375 65.37890625 C31.88004323 72.51730167 30.76247871 77.42316403 25 82 C20.75178326 84.94039795 16.41199496 86.83603275 11.1171875 86.49609375 C3.77473365 84.77562947 -1.97992986 79.36507207 -7.4375 74.4375 C-7.94571289 73.97883545 -8.45392578 73.5201709 -8.97753906 73.04760742 C-12.48458162 69.76225418 -15.71217994 66.64434685 -16.25 61.703125 C-15.55500787 54.88351475 -13.87117396 48.59249179 -11.72851562 42.10253906 C-10.29175208 37.62679023 -9.46417806 33.75833179 -10 29 C-11.33620548 26.99708354 -11.33620548 26.99708354 -13.3125 25.6875 C-13.92738281 25.21699219 -14.54226563 24.74648437 -15.17578125 24.26171875 C-18.35576463 21.67742105 -18.35576463 21.67742105 -22.1875 21.375 C-22.785625 21.58125 -23.38375 21.7875 -24 22 C-23.75722624 25.35184423 -22.78030433 26.20803321 -20.27734375 28.578125 C-19.17185454 29.47840364 -18.05823943 30.3687786 -16.9375 31.25 C-16.36966797 31.70890625 -15.80183594 32.1678125 -15.21679688 32.640625 C-13.8180802 33.76900148 -12.40992986 34.8856663 -11 36 C-12.38836644 40.16509933 -14.31755366 42.75127978 -17.3125 45.9375 C-20.65785657 49.54724766 -23.88958181 53.18722932 -27 57 C-34.51679707 53.59395133 -41.87601246 46.70496085 -45 39 C-46.47021393 27.2382886 -44.0669037 18.66255846 -36.87890625 9.2109375 C-27.17172081 -2.19542598 -13.82593421 -9.33730627 0 0 Z M4 40 C3.45952079 43.70614317 3.27331492 45.8537408 5.3125 49.0703125 C9.05045593 53.45907326 13.02133434 57.08795028 18 60 C20.15156678 59.9219633 20.15156678 59.9219633 22 59 C22.33 58.01 22.66 57.02 23 56 C19.26356655 52.15821599 15.34909673 48.63718927 11.25 45.1875 C10.66089844 44.68541016 10.07179687 44.18332031 9.46484375 43.66601562 C7.03023965 41.14410442 7.03023965 41.14410442 4 40 Z " fill="#000000" transform="translate(6828,3356)"/>
</svg>
