<?xml version="1.0" encoding="UTF-8"?>
<svg version="1.1" xmlns="http://www.w3.org/2000/svg" width="480" height="480">
<path d="M0 0 C158.4 0 316.8 0 480 0 C480 158.4 480 316.8 480 480 C321.6 480 163.2 480 0 480 C0 321.6 0 163.2 0 0 Z " fill="#000000" transform="translate(0,0)"/>
<path d="M0 0 C5.69167862 4.07041259 8.99276626 9.1734966 10.6875 15.9375 C11.00657117 20.00223884 11.02001224 24.04927268 11 28.125 C10.99581055 29.28394775 10.99162109 30.44289551 10.98730469 31.63696289 C10.85728055 41.65089669 9.69801838 51.14595972 7.6875 60.9375 C7.5323291 61.7217334 7.3771582 62.5059668 7.21728516 63.31396484 C5.21882846 73.39588349 2.91855894 83.40516121 0.51953125 93.3984375 C-0.14809306 96.23819162 -0.76498494 99.07272424 -1.3125 101.9375 C5.38564384 94.62772574 5.38564384 94.62772574 11.9375 87.1875 C23.39243706 74.03852296 35.44218112 60.87232591 48.765625 49.5859375 C50.13466957 48.41167569 51.4758651 47.20461245 52.796875 45.9765625 C69.8321947 30.14171835 92.17687016 10.95486404 116.6472168 11.27929688 C123.07767932 11.63764628 127.27578858 13.27534208 131.6875 17.9375 C143.59563695 31.83930694 143.82939717 50.54962693 144.6875 67.9375 C145.20957031 67.28265625 145.73164063 66.6278125 146.26953125 65.953125 C151.34823676 59.65588595 156.62836499 53.64191821 162.12890625 47.71484375 C164.2170281 45.44819545 166.24756496 43.15417109 168.25 40.8125 C172.46842431 35.93558995 177.08909516 31.45263393 181.6875 26.9375 C182.3475 27.2675 183.0075 27.5975 183.6875 27.9375 C182.92566406 28.67613281 182.16382813 29.41476563 181.37890625 30.17578125 C174.65290877 36.75834626 168.53549481 43.55204849 162.6875 50.9375 C161.61149971 52.26084501 160.53321682 53.58233607 159.453125 54.90234375 C158.59738892 55.94890137 158.59738892 55.94890137 157.72436523 57.01660156 C156.60967528 58.379544 155.49462823 59.7421945 154.37915039 61.10449219 C150.69509827 65.62906664 147.15575254 70.24561505 143.6875 74.9375 C142.6975 74.6075 141.7075 74.2775 140.6875 73.9375 C140.64786133 73.22843506 140.60822266 72.51937012 140.56738281 71.78881836 C139.78390208 44.4355326 139.78390208 44.4355326 126.9453125 21.21875 C122.24254722 17.7063112 117.59525788 17.18578131 111.82421875 17.4609375 C97.44030112 19.64628987 84.50922754 29.77941117 73.6875 38.9375 C72.70007813 39.74058594 71.71265625 40.54367188 70.6953125 41.37109375 C62.97003355 47.73144962 55.82721978 54.61643807 48.75 61.6875 C47.86207764 62.5746167 46.97415527 63.4617334 46.05932617 64.37573242 C41.06942037 69.40802534 36.30345132 74.56252181 31.6875 79.9375 C30.23304483 81.54518373 28.77529105 83.14989715 27.3125 84.75 C23.4170343 89.06659713 19.71891782 93.5115113 16.0625 98.03125 C13.52085006 101.1414269 10.92155803 104.19651417 8.3125 107.25 C3.41711035 112.99428116 -1.26888627 118.88707222 -5.90234375 124.84375 C-7.09537109 126.37515625 -7.09537109 126.37515625 -8.3125 127.9375 C-9.01375 128.8759375 -9.715 129.814375 -10.4375 130.78125 C-12.3125 132.9375 -12.3125 132.9375 -15.375 133.9375 C-18.3125 133.9375 -18.3125 133.9375 -20.00488281 132.75292969 C-22.26087275 129.62082716 -21.25624437 126.58519014 -20.81054688 122.91601562 C-20.05497974 118.39742783 -18.86713679 114.07426999 -17.5625 109.6875 C-11.89477408 89.68818261 -8.18872873 69.51374151 -5.3125 48.9375 C-5.15346191 47.85263306 -5.15346191 47.85263306 -4.99121094 46.74584961 C-4.27931884 41.61269935 -4.09552457 36.54747302 -4.0625 31.375 C-4.041875 30.56353516 -4.02125 29.75207031 -4 28.91601562 C-3.96492776 23.48420314 -4.84087903 19.78317795 -7.3125 14.9375 C-12.56026988 14.45394417 -15.7004857 15.87654697 -19.9375 18.75 C-20.85861572 19.36331177 -20.85861572 19.36331177 -21.79833984 19.98901367 C-28.2088855 24.37399922 -33.79625153 29.49945511 -39.3125 34.9375 C-40.46322998 36.05970947 -40.46322998 36.05970947 -41.63720703 37.20458984 C-54.6516558 49.8275903 -54.6516558 49.8275903 -66.4453125 63.56640625 C-68.48284153 66.15381236 -70.65170115 68.57084015 -72.875 71 C-77.24911948 75.81228689 -81.30492507 80.81833495 -85.3125 85.9375 C-86.12203125 86.96359375 -86.9315625 87.9896875 -87.765625 89.046875 C-90.1037034 92.01134091 -92.43334084 94.98233094 -94.76025391 97.95556641 C-95.82128272 99.31030562 -96.88351312 100.66410438 -97.94677734 102.01708984 C-105.33217151 111.41687641 -112.5761839 120.90004038 -119.60668945 130.5690918 C-128.23107899 142.39678949 -128.23107899 142.39678949 -131.3125 143.9375 C-134.37170574 144.35821592 -137.2592746 144.42264117 -140.3125 143.9375 C-144.44593383 140.66519822 -146.13033312 138.49845288 -146.73828125 133.2890625 C-146.65776558 127.95580048 -143.94011738 125.13613262 -140.5 121.3125 C-139.2956283 119.90731758 -138.09252397 118.50104801 -136.890625 117.09375 C-136.28541016 116.39636719 -135.68019531 115.69898438 -135.05664062 114.98046875 C-132.51569925 112.00418132 -130.13497053 108.91397395 -127.75 105.8125 C-123.53967325 100.39944247 -119.14792619 95.16805835 -114.65869141 89.98486328 C-111.58450186 86.43386884 -108.57893342 82.84010289 -105.625 79.1875 C-102.02144468 74.74984869 -98.26647334 70.48388122 -94.41796875 66.2578125 C-92.58332315 64.23595816 -90.78481214 62.19071478 -89 60.125 C-80.56865131 50.49461075 -71.76484075 41.27330491 -62.75 32.1875 C-61.88810059 31.31262939 -61.02620117 30.43775879 -60.13818359 29.53637695 C-19.42021086 -11.23940097 -19.42021086 -11.23940097 0 0 Z " fill="#FAFAFA" transform="translate(223.3125,159.0625)"/>
<path d="M0 0 C4.05523038 2.85709413 7.51585617 6.46921234 9.75 10.9375 C10.52468501 17.76996777 9.79758335 23.28394003 5.75 28.9375 C0.41449774 34.01273386 -4.18974251 34.28737281 -11.30078125 34.21875 C-16.58210807 33.71510029 -19.13718282 31.17062174 -22.5625 27.375 C-26.20184045 22.1181749 -26.06965874 16.10445625 -25.25 9.9375 C-23.22534744 5.52389753 -20.38886965 2.76576883 -16.5 -0.0625 C-10.85340363 -1.79991427 -5.62231591 -1.83806482 0 0 Z " fill="#EA0000" transform="translate(374.25,240.0625)"/>
<path d="M0 0 C0.66 0.33 1.32 0.66 2 1 C1.23816406 1.73863281 0.47632813 2.47726563 -0.30859375 3.23828125 C-7.61179516 10.38576661 -14.22454168 17.80395382 -20.47070312 25.90820312 C-21.52800714 27.279947 -22.58926125 28.64865463 -23.65429688 30.0144043 C-24.69653729 31.35212688 -25.72955545 32.69710028 -26.75195312 34.05004883 C-29.51007643 37.58540237 -31.49139288 39.80702914 -36 41 C-34.47920927 37.49172085 -32.4004327 35.04728354 -29.8125 32.25 C-29.00425781 31.36828125 -28.19601562 30.4865625 -27.36328125 29.578125 C-26.58339844 28.72734375 -25.80351562 27.8765625 -25 27 C-23.82838939 25.67100886 -22.66126608 24.3380396 -21.5 23 C-14.57684207 15.07186753 -7.52475227 7.36465116 0 0 Z " fill="#E2E2E2" transform="translate(405,186)"/>
<path d="M0 0 C0.66 0.33 1.32 0.66 2 1 C-3.66666667 6.66666667 -9.33333333 12.33333333 -15 18 C-15 15 -15 15 -13.62304688 13.2824707 C-12.99462891 12.66976318 -12.36621094 12.05705566 -11.71875 11.42578125 C-11.04199219 10.75869141 -10.36523438 10.09160156 -9.66796875 9.40429688 C-8.95253906 8.71400391 -8.23710937 8.02371094 -7.5 7.3125 C-6.42685547 6.2596582 -6.42685547 6.2596582 -5.33203125 5.18554688 C-3.56120423 3.45013639 -1.78376544 1.7220927 0 0 Z " fill="#CDCDCD" transform="translate(405,186)"/>
<path d="M0 0 C2.4375 0.875 2.4375 0.875 4.4375 3.875 C2.625 4.5 2.625 4.5 0.4375 4.875 C-0.5525 4.215 -1.5425 3.555 -2.5625 2.875 C-4.2125 4.195 -5.8625 5.515 -7.5625 6.875 C-4.38472222 -0.21388889 -4.38472222 -0.21388889 0 0 Z " fill="#6C500A" transform="translate(401.5625,194.125)"/>
<path d="M0 0 C2.475 0.99 2.475 0.99 5 2 C4.67 3.32 4.34 4.64 4 6 C2.35 5.01 0.7 4.02 -1 3 C-0.67 2.01 -0.34 1.02 0 0 Z " fill="#C48B00" transform="translate(378,221)"/>
<path d="M0 0 C2.625 0.9375 2.625 0.9375 5 2 C4.67 2.99 4.34 3.98 4 5 C2.125 4.6875 2.125 4.6875 0 4 C-0.66 3.01 -1.32 2.02 -2 1 C-1.34 0.67 -0.68 0.34 0 0 Z " fill="#B27F00" transform="translate(390,208)"/>
<path d="M0 0 C1.32 0.33 2.64 0.66 4 1 C4 2.32 4 3.64 4 5 C2.68 4.34 1.36 3.68 0 3 C0 2.01 0 1.02 0 0 Z " fill="#BB8500" transform="translate(384,215)"/>
</svg>
